<?xml version="1.0" standalone="no"?>
<!DOCTYPE svg PUBLIC "-//W3C//DTD SVG 1.1//EN" "http://www.w3.org/Graphics/SVG/1.1/DTD/svg11.dtd">
<svg width="100%" height="100%" viewBox="0 0 1272 1150" version="1.1" xmlns="http://www.w3.org/2000/svg" xmlns:xlink="http://www.w3.org/1999/xlink" xml:space="preserve" style="fill-rule:evenodd;clip-rule:evenodd;stroke-linejoin:round;stroke-miterlimit:1.41421;">
    <g transform="matrix(1,0,0,1,-490.941,-1925.09)">
        <g transform="matrix(0.800529,0,0,0.800529,-66.531,433.747)">
            <path d="M1490.19,1936.45L2122.67,3201.41L857.707,3201.41L1490.19,1936.45Z" style="fill:rgb(235,235,235);"/>
        </g>
        <g transform="matrix(1,0,0,1,97.4217,-219.178)">
            <text x="391.567px" y="3273.06px" style="font-family:'ArialMT';font-size:50px;fill:black;">coordination</text>
        </g>
        <g transform="matrix(1,0,0,1,570.042,-1312.18)">
            <text x="391.567px" y="3273.06px" style="font-family:'ArialMT';font-size:50px;fill:black;">communication</text>
        </g>
        <g transform="matrix(1,0,0,1,1113.5,-208.804)">
            <text x="391.567px" y="3273.06px" style="font-family:'ArialMT';font-size:50px;fill:black;">cooperation</text>
        </g>
        <g transform="matrix(1,0,0,1,-15.7918,-16.7351)">
            <text x="1033.68px" y="2282.52px" style="font-family:'ArialMT';font-size:37.5px;fill:black;">conferencing</text>
            <text x="1072.29px" y="2321.25px" style="font-family:'ArialMT';font-size:37.5px;fill:black;">systems</text>
        </g>
        <g transform="matrix(1,0,0,1,-356.884,648.916)">
            <text x="1068.11px" y="2282.52px" style="font-family:'ArialMT';font-size:37.5px;fill:black;">workﬂow</text>
            <text x="1031.6px" y="2321.25px" style="font-family:'ArialMT';font-size:37.5px;fill:black;">management</text>
        </g>
        <g transform="matrix(1,0,0,1,307.177,641.06)">
            <text x="1060.8px" y="2282.52px" style="font-family:'ArialMT';font-size:37.5px;fill:black;">electronic</text>
            <text x="1017.03px" y="2321.25px" style="font-family:'ArialMT';font-size:37.5px;fill:black;">meeting rooms</text>
        </g>
        <g transform="matrix(1,0,0,1,-9.53867,294.66)">
            <text x="985.75px" y="2282.52px" style="font-family:'ArialMT';font-size:37.5px;fill:black;">shared information</text>
            <text x="1081.63px" y="2321.25px" style="font-family:'ArialMT';font-size:37.5px;fill:black;">spaces</text>
        </g>
    </g>
</svg>
