<?xml version="1.0" standalone="no"?>
<!DOCTYPE svg PUBLIC "-//W3C//DTD SVG 1.1//EN" "http://www.w3.org/Graphics/SVG/1.1/DTD/svg11.dtd">
<svg width="100%" height="100%" viewBox="0 0 1872 1379" version="1.1" xmlns="http://www.w3.org/2000/svg" xmlns:xlink="http://www.w3.org/1999/xlink" xml:space="preserve" style="fill-rule:evenodd;clip-rule:evenodd;stroke-linecap:round;stroke-linejoin:round;stroke-miterlimit:1.41421;">
    <g transform="matrix(1,0,0,1,-136.791,-254.329)">
        <g transform="matrix(1,0,0,1,-183.962,587.711)">
            <rect x="427.523" y="428.521" width="862.155" height="617.002" style="fill:rgb(235,235,235);"/>
        </g>
        <g transform="matrix(1,0,0,1,-184.58,-77.3548)">
            <rect x="427.523" y="428.521" width="862.155" height="617.002" style="fill:rgb(235,235,235);"/>
        </g>
        <g transform="matrix(1,0,0,1,-44.0475,5.64901)">
            <text x="430.501px" y="501.97px" style="font-family:'ArialMT';font-size:50px;fill:black;">Face to Face Interactions</text>
        </g>
        <g transform="matrix(1,0,0,1,27.5456,654.83)">
            <text x="430.501px" y="501.97px" style="font-family:'ArialMT';font-size:50px;fill:black;">Remote Interactions</text>
        </g>
        <g transform="matrix(1,0,0,1,719.026,-76.212)">
            <rect x="427.523" y="428.521" width="862.155" height="617.002" style="fill:rgb(235,235,235);"/>
        </g>
        <g transform="matrix(1,0,0,1,718.543,586.261)">
            <rect x="427.523" y="428.521" width="862.155" height="617.002" style="fill:rgb(235,235,235);"/>
        </g>
        <g transform="matrix(-1.60812e-16,-1,1,-1.60812e-16,-805.341,1114.28)">
            <text x="61.435px" y="977.922px" style="font-family:'ArialMT';font-size:50px;fill:black;">Place</text>
        </g>
        <g transform="matrix(-1.60812e-16,-1,1,-1.60812e-16,-748.311,746.621)">
            <text x="61.435px" y="977.922px" style="font-family:'ArialMT';font-size:37.5px;fill:black;">Same</text>
        </g>
        <g transform="matrix(-1.60812e-16,-1,1,-1.60812e-16,-748.637,1507.17)">
            <text x="61.435px" y="977.922px" style="font-family:'ArialMT';font-size:37.5px;fill:black;">Dif<tspan x="106.589px 117.008px " y="977.922px 977.922px ">fe</tspan>rent</text>
        </g>
        <g transform="matrix(1,0,0,1,105.916,12.1921)">
            <text x="479.778px" y="320.571px" style="font-family:'ArialMT';font-size:37.5px;fill:black;">Same</text>
        </g>
        <g transform="matrix(1,-2.22045e-16,2.22045e-16,1,1464.68,-641.651)">
            <text x="61.435px" y="977.922px" style="font-family:'ArialMT';font-size:37.5px;fill:black;">Dif<tspan x="106.589px 117.008px " y="977.922px 977.922px ">fe</tspan>rent</text>
        </g>
        <g transform="matrix(1,0,0,1,936.757,-815.625)">
            <text x="137.817px" y="1105.75px" style="font-family:'ArialMT';font-size:50px;fill:black;">T<tspan x="166.503px 177.612px " y="1105.75px 1105.75px ">im</tspan>e</text>
        </g>
        <path d="M260.617,275.02L1054.37,275.02" style="fill:none;stroke-width:1px;stroke:black;"/>
        <g transform="matrix(1.91631e-16,0.676479,-0.676479,1.91631e-16,344.998,184.126)">
            <path d="M260.617,275.02L1054.37,275.02" style="fill:none;stroke-width:1.48px;stroke:black;"/>
        </g>
        <g transform="matrix(1.91631e-16,0.676479,-0.676479,1.91631e-16,340.564,909.559)">
            <path d="M260.617,275.02L1054.37,275.02" style="fill:none;stroke-width:1.48px;stroke:black;"/>
        </g>
        <g transform="matrix(1,0,0,1,941.409,0.178366)">
            <path d="M260.617,275.02L1054.37,275.02" style="fill:none;stroke-width:1px;stroke:black;"/>
        </g>
        <g transform="matrix(1,0,0,1,807.311,655.392)">
            <text x="430.501px" y="501.97px" style="font-family:'ArialMT';font-size:50px;fill:black;">Communication &amp; Coordination</text>
        </g>
        <g transform="matrix(1,0,0,1,929.406,3.91086)">
            <text x="430.501px" y="501.97px" style="font-family:'ArialMT';font-size:50px;fill:black;">Continuous <tspan x="696.443px 721.443px 749.251px " y="501.97px 501.97px 501.97px ">Tas</tspan>k</text>
        </g>
    </g>
</svg>
