<?xml version="1.0" encoding="UTF-8" standalone="no"?>
<!-- Generated by graphviz version 2.38.0 (20140413.2041)
 -->

<!-- Title: test Pages: 1 -->

<svg
   xmlns:dc="http://purl.org/dc/elements/1.1/"
   xmlns:cc="http://creativecommons.org/ns#"
   xmlns:rdf="http://www.w3.org/1999/02/22-rdf-syntax-ns#"
   xmlns:svg="http://www.w3.org/2000/svg"
   xmlns="http://www.w3.org/2000/svg"
   xmlns:sodipodi="http://sodipodi.sourceforge.net/DTD/sodipodi-0.dtd"
   xmlns:inkscape="http://www.inkscape.org/namespaces/inkscape"
   width="277pt"
   height="141pt"
   viewBox="0 0 277 141"
   id="svg2"
   version="1.1"
   inkscape:version="0.91 r13725"
   sodipodi:docname="sample_order_12345.svg">
  <metadata
     id="metadata52">
    <rdf:RDF>
      <cc:Work
         rdf:about="">
        <dc:format>image/svg+xml</dc:format>
        <dc:type
           rdf:resource="http://purl.org/dc/dcmitype/StillImage" />
        <dc:title></dc:title>
      </cc:Work>
    </rdf:RDF>
  </metadata>
  <defs
     id="defs50" />
  <sodipodi:namedview
     pagecolor="#ffffff"
     bordercolor="#666666"
     borderopacity="1"
     objecttolerance="10"
     gridtolerance="10"
     guidetolerance="10"
     inkscape:pageopacity="0"
     inkscape:pageshadow="2"
     inkscape:window-width="903"
     inkscape:window-height="606"
     id="namedview48"
     showgrid="false"
     fit-margin-top="5"
     fit-margin-left="5"
     fit-margin-right="5"
     fit-margin-bottom="5"
     inkscape:zoom="1.1026217"
     inkscape:cx="8.9707886"
     inkscape:cy="88.125"
     inkscape:window-x="641"
     inkscape:window-y="263"
     inkscape:window-maximized="0"
     inkscape:current-layer="svg2" />
  <g
     id="graph0"
     class="graph"
     transform="translate(9,132)">
    <title
       id="title5">test</title>
    <polygon
       points="-4,-127 263,-127 263,4 -4,4 -4,4 "
       id="polygon7"
       style="fill:#ffffff;stroke:none" />
    <!-- node1 -->
    <g
       id="node1"
       class="node">
      <title
         id="title10">node1</title>
      <path
         d="m 247,-36 c 0,0 -235,0 -235,0 -6,0 -12,6 -12,12 0,0 0,12 0,12 0,6 6,12 12,12 0,0 235,0 235,0 6,0 12,-6 12,-12 0,0 0,-12 0,-12 0,-6 -6,-12 -12,-12"
         id="path12"
         inkscape:connector-curvature="0"
         style="fill:none;stroke:#808080" />
      <text
         x="129.5"
         y="-14.3"
         font-size="14.00"
         id="text14"
         style="font-size:14px;font-family:Times, serif;text-anchor:middle;fill:#0000ff">&lt;http://www.merchant1.com/orders/12345&gt;</text>
    </g>
    <!-- node2 -->
    <g
       id="node2"
       class="node">
      <title
         id="title17">node2</title>
      <polygon
         points="31.5,-123 31.5,-87 85.5,-87 85.5,-123 85.5,-123 "
         id="polygon19"
         style="fill:none;stroke:#808080" />
      <text
         x="58.5"
         y="-101.3"
         font-size="14.00"
         id="text21"
         style="font-size:14px;font-family:Times, serif;text-anchor:middle">12345</text>
    </g>
    <!-- node1&#45;&gt;node2 -->
    <g
       id="edge1"
       class="edge">
      <title
         id="title24">node1-&gt;node2</title>
      <path
         d="M 78.2766,-36.1264 C 70.8431,-40.786 64.1454,-46.649 59.5,-54 55.243,-60.7364 53.9099,-69.0693 53.9514,-76.9882"
         id="path26"
         inkscape:connector-curvature="0"
         style="fill:none;stroke:#000000" />
      <polygon
         points="57.4444,-76.7663 50.4622,-77.2661 50.4622,-77.2661 54.6673,-86.9906 "
         id="polygon28"
         style="fill:#000000;stroke:#000000" />
      <text
         x="119"
         y="-57.799999"
         font-size="14.00"
         id="text30"
         style="font-size:14px;font-family:Times, serif;text-anchor:middle">schema:orderNumber</text>
    </g>
    <!-- node3 -->
    <g
       id="node3"
       class="node">
      <title
         id="title33">node3</title>
      <path
         d="m 235,-123 c 0,0 -69,0 -69,0 -6,0 -12,6 -12,12 0,0 0,12 0,12 0,6 6,12 12,12 0,0 69,0 69,0 6,0 12,-6 12,-12 0,0 0,-12 0,-12 0,-6 -6,-12 -12,-12"
         id="path35"
         inkscape:connector-curvature="0"
         style="fill:none;stroke:#808080" />
      <text
         x="200.5"
         y="-101.3"
         font-size="14.00"
         id="text37"
         style="font-size:14px;font-family:Times, serif;text-anchor:middle;fill:#0000ff">schema:Order</text>
    </g>
    <!-- node1&#45;&gt;node3 -->
    <g
       id="edge2"
       class="edge">
      <title
         id="title40">node1-&gt;node3</title>
      <path
         d="m 158.889,-36.1236 c 7.063,-5.097 14.138,-11.1432 19.611,-17.8764 5.529,-6.8015 9.933,-15.2088 13.304,-23.1761"
         id="path42"
         inkscape:connector-curvature="0"
         style="fill:none;stroke:#000000" />
      <polygon
         points="195.082,-75.9488 188.549,-78.4646 188.549,-78.4646 195.409,-86.5386 "
         id="polygon44"
         style="fill:#000000;stroke:#000000" />
      <text
         x="212"
         y="-57.799999"
         font-size="14.00"
         id="text46"
         style="font-size:14px;font-family:Times, serif;text-anchor:middle">rdfs:type</text>
    </g>
  </g>
</svg>
