<?xml version="1.0" encoding="UTF-8" standalone="no"?>
<!-- Generated by graphviz version 2.38.0 (20140413.2041)
 -->

<!-- Title: test Pages: 1 -->

<svg
   xmlns:dc="http://purl.org/dc/elements/1.1/"
   xmlns:cc="http://creativecommons.org/ns#"
   xmlns:rdf="http://www.w3.org/1999/02/22-rdf-syntax-ns#"
   xmlns:svg="http://www.w3.org/2000/svg"
   xmlns="http://www.w3.org/2000/svg"
   xmlns:sodipodi="http://sodipodi.sourceforge.net/DTD/sodipodi-0.dtd"
   xmlns:inkscape="http://www.inkscape.org/namespaces/inkscape"
   width="355.99402pt"
   height="49.747284pt"
   viewBox="0 0 355.99402 49.747284"
   id="svg2"
   version="1.1"
   inkscape:version="0.91 r13725"
   sodipodi:docname="sample_triple.svg">
  <metadata
     id="metadata52">
    <rdf:RDF>
      <cc:Work
         rdf:about="">
        <dc:format>image/svg+xml</dc:format>
        <dc:type
           rdf:resource="http://purl.org/dc/dcmitype/StillImage" />
        <dc:title></dc:title>
      </cc:Work>
    </rdf:RDF>
  </metadata>
  <defs
     id="defs50">
    <marker
       inkscape:stockid="Arrow1Lend"
       orient="auto"
       refY="0"
       refX="0"
       id="Arrow1Lend"
       style="overflow:visible"
       inkscape:isstock="true">
      <path
         id="path4184"
         d="M 0,0 5,-5 -12.5,0 5,5 0,0 Z"
         style="fill:#000000;fill-opacity:1;fill-rule:evenodd;stroke:#000000;stroke-width:1pt;stroke-opacity:1"
         transform="matrix(-0.8,0,0,-0.8,-10,0)"
         inkscape:connector-curvature="0" />
    </marker>
  </defs>
  <sodipodi:namedview
     pagecolor="#ffffff"
     bordercolor="#666666"
     borderopacity="1"
     objecttolerance="10"
     gridtolerance="10"
     guidetolerance="10"
     inkscape:pageopacity="0"
     inkscape:pageshadow="2"
     inkscape:window-width="1316"
     inkscape:window-height="749"
     id="namedview48"
     showgrid="false"
     fit-margin-top="5.7"
     fit-margin-left="5"
     fit-margin-right="5"
     fit-margin-bottom="5"
     inkscape:zoom="1.1026217"
     inkscape:cx="68.977463"
     inkscape:cy="-47.728479"
     inkscape:window-x="277"
     inkscape:window-y="148"
     inkscape:window-maximized="0"
     inkscape:current-layer="graph0" />
  <g
     id="graph0"
     class="graph"
     transform="translate(33.945106,94.309785)">
    <title
       id="title5">test</title>
    <!-- node1 -->
    <path
       style="fill:none;stroke:#808080;stroke-width:0.65447146"
       inkscape:connector-curvature="0"
       id="path12"
       d="m 76.174567,-86.235267 c 0,0 -99.701304,0 -99.701304,0 -2.545566,0 -5.091133,6.057589 -5.091133,12.115176 0,0 0,12.115178 0,12.115178 0,6.057587 2.545567,12.115176 5.091133,12.115176 0,0 99.701304,0 99.701304,0 2.545566,0 5.091133,-6.057589 5.091133,-12.115176 0,0 0,-12.115178 0,-12.115178 0,-6.057587 -2.545567,-12.115176 -5.091133,-12.115176" />
    <text
       sodipodi:linespacing="0%"
       style="font-size:14px;line-height:0%;font-family:Times, serif;text-anchor:middle;fill:#0000ff"
       id="text14"
       font-size="14.00"
       y="-64.362503"
       x="26.323915">&lt;MasterThesis&gt;</text>
    <path
       style="fill:none;stroke:#808080;stroke-width:0.69583356"
       inkscape:connector-curvature="0"
       id="path12-3"
       d="m 310.93946,-87.361868 c 0,0 -112.83,0 -112.83,0 -2.88077,0 -5.76154,6.050695 -5.76154,12.10139 0,0 0,12.101389 0,12.101389 0,6.050695 2.88077,12.101389 5.76154,12.101389 0,0 112.83,0 112.83,0 2.88077,0 5.76154,-6.050694 5.76154,-12.101389 0,0 0,-12.101389 0,-12.101389 0,-6.050695 -2.88077,-12.10139 -5.76154,-12.10139" />
    <!-- node2 -->
    <!-- node1&#45;&gt;node2 -->
    <!-- node3 -->
    <g
       id="node3"
       class="node"
       transform="translate(54.567934,36.426088)">
      <title
         id="title33">node3</title>
      <text
         x="200.5"
         y="-101.3"
         font-size="14.00"
         id="text37"
         style="font-size:14px;font-family:Times, serif;text-anchor:middle;fill:#0000ff">&lt;AndreasGerlach&gt;</text>
    </g>
    <!-- node1&#45;&gt;node3 -->
    <g
       id="edge2"
       class="edge"
       transform="translate(-45.70924,-64.573371)">
      <title
         id="title40">node1-&gt;node3</title>
      <text
         x="173.54619"
         y="10.401089"
         font-size="14.00"
         id="text46"
         style="font-size:14px;font-family:Times, serif;text-anchor:middle">createdBy</text>
    </g>
    <path
       style="fill:none;fill-rule:evenodd;stroke:#000000;stroke-width:0.80000001px;stroke-linecap:butt;stroke-linejoin:miter;stroke-opacity:1;marker-end:url(#Arrow1Lend)"
       d="m 81.692936,-68.633154 109.557074,0"
       id="path3375"
       inkscape:connector-curvature="0" />
  </g>
</svg>
