<?xml version="1.0" encoding="UTF-8" standalone="no"?>
<!-- Generated by graphviz version 2.38.0 (20140413.2041)
 -->

<!-- Title: test Pages: 1 -->

<svg
   xmlns:dc="http://purl.org/dc/elements/1.1/"
   xmlns:cc="http://creativecommons.org/ns#"
   xmlns:rdf="http://www.w3.org/1999/02/22-rdf-syntax-ns#"
   xmlns:svg="http://www.w3.org/2000/svg"
   xmlns="http://www.w3.org/2000/svg"
   xmlns:sodipodi="http://sodipodi.sourceforge.net/DTD/sodipodi-0.dtd"
   xmlns:inkscape="http://www.inkscape.org/namespaces/inkscape"
   width="953pt"
   height="228pt"
   viewBox="0 0 953 228"
   id="svg2"
   version="1.1"
   inkscape:version="0.91 r13725"
   sodipodi:docname="sample_customer_mustermann.svg">
  <metadata
     id="metadata226">
    <rdf:RDF>
      <cc:Work
         rdf:about="">
        <dc:format>image/svg+xml</dc:format>
        <dc:type
           rdf:resource="http://purl.org/dc/dcmitype/StillImage" />
        <dc:title></dc:title>
      </cc:Work>
    </rdf:RDF>
  </metadata>
  <defs
     id="defs224" />
  <sodipodi:namedview
     pagecolor="#ffffff"
     bordercolor="#666666"
     borderopacity="1"
     objecttolerance="10"
     gridtolerance="10"
     guidetolerance="10"
     inkscape:pageopacity="0"
     inkscape:pageshadow="2"
     inkscape:window-width="1237"
     inkscape:window-height="773"
     id="namedview222"
     showgrid="false"
     fit-margin-top="5"
     fit-margin-left="5"
     fit-margin-right="5"
     fit-margin-bottom="5"
     inkscape:zoom="0.31219512"
     inkscape:cx="184.02344"
     inkscape:cy="142.5"
     inkscape:window-x="385"
     inkscape:window-y="187"
     inkscape:window-maximized="0"
     inkscape:current-layer="svg2" />
  <g
     id="graph0"
     class="graph"
     transform="translate(9,219)">
    <title
       id="title5">test</title>
    <polygon
       points="939,4 -4,4 -4,4 -4,-214 939,-214 "
       id="polygon7"
       style="fill:#ffffff;stroke:none" />
    <!-- node1 -->
    <g
       id="node1"
       class="node">
      <title
         id="title10">node1</title>
      <circle
         cx="318"
         cy="-105"
         id="ellipse12"
         r="10.8"
         style="fill:#ffffff;stroke:#808080" />
    </g>
    <!-- node2 -->
    <g
       id="node2"
       class="node">
      <title
         id="title15">node2</title>
      <path
         d="m 72,-210 c 0,0 -60,0 -60,0 -6,0 -12,6 -12,12 0,0 0,12 0,12 0,6 6,12 12,12 0,0 60,0 60,0 6,0 12,-6 12,-12 0,0 0,-12 0,-12 0,-6 -6,-12 -12,-12"
         id="path17"
         inkscape:connector-curvature="0"
         style="fill:none;stroke:#808080" />
      <text
         x="42"
         y="-188.3"
         font-size="14.00"
         id="text19"
         style="font-size:14px;font-family:Times, serif;text-anchor:middle;fill:#0000ff">vcard:Home</text>
    </g>
    <!-- node1&#45;&gt;node2 -->
    <g
       id="edge6"
       class="edge">
      <title
         id="title22">node1-&gt;node2</title>
      <path
         d="M 307.048,-105.461 C 273.315,-104.253 168.756,-103.925 94,-141 81.9034,-146.999 70.7728,-156.813 61.94,-166.165"
         id="path24"
         inkscape:connector-curvature="0"
         style="fill:none;stroke:#000000" />
      <polygon
         points="59.1516,-164.033 59.1516,-164.033 55.0902,-173.818 64.3674,-168.701 "
         id="polygon26"
         style="fill:#000000;stroke:#000000" />
      <text
         x="115.5"
         y="-144.8"
         font-size="14.00"
         id="text28"
         style="font-size:14px;font-family:Times, serif;text-anchor:middle">rdf:type</text>
    </g>
    <!-- Germany -->
    <g
       id="node3"
       class="node">
      <title
         id="title31">Germany</title>
      <polygon
         points="170,-174 170,-210 170,-210 102,-210 102,-174 "
         id="polygon33"
         style="fill:none;stroke:#808080" />
      <text
         x="136"
         y="-188.3"
         font-size="14.00"
         id="text35"
         style="font-size:14px;font-family:Times, serif;text-anchor:middle">Germany</text>
    </g>
    <!-- node1&#45;&gt;Germany -->
    <g
       id="edge2"
       class="edge">
      <title
         id="title38">node1-&gt;Germany</title>
      <path
         d="M 307.255,-106.769 C 273.762,-109.383 172.123,-119.009 149,-141 c -6.284,-5.976 -9.676,-14.571 -11.463,-22.953"
         id="path40"
         inkscape:connector-curvature="0"
         style="fill:none;stroke:#000000" />
      <polygon
         points="134.069,-163.477 134.069,-163.477 136.065,-173.882 140.994,-164.503 "
         id="polygon42"
         style="fill:#000000;stroke:#000000" />
      <text
         x="204"
         y="-144.8"
         font-size="14.00"
         id="text44"
         style="font-size:14px;font-family:Times, serif;text-anchor:middle">vcard:country-name</text>
    </g>
    <!-- Musterstadt -->
    <g
       id="node4"
       class="node">
      <title
         id="title47">Musterstadt</title>
      <polygon
         points="309.5,-174 309.5,-210 309.5,-210 228.5,-210 228.5,-174 "
         id="polygon49"
         style="fill:none;stroke:#808080" />
      <text
         x="269"
         y="-188.3"
         font-size="14.00"
         id="text51"
         style="font-size:14px;font-family:Times, serif;text-anchor:middle">Musterstadt</text>
    </g>
    <!-- node1&#45;&gt;Musterstadt -->
    <g
       id="edge4"
       class="edge">
      <title
         id="title54">node1-&gt;Musterstadt</title>
      <path
         d="M 307.719,-109.495 C 295.246,-114.358 274.795,-124.478 266,-141 c -3.652,-6.861 -4.389,-15.025 -3.8,-22.747"
         id="path56"
         inkscape:connector-curvature="0"
         style="fill:none;stroke:#000000" />
      <polygon
         points="258.765,-164.449 258.765,-164.449 263.674,-173.838 265.692,-163.437 "
         id="polygon58"
         style="fill:#000000;stroke:#000000" />
      <text
         x="303.5"
         y="-144.8"
         font-size="14.00"
         id="text60"
         style="font-size:14px;font-family:Times, serif;text-anchor:middle">vcard:locality</text>
    </g>
    <!-- node3 -->
    <g
       id="node5"
       class="node">
      <title
         id="title63">node3</title>
      <polygon
         points="394,-174 394,-210 394,-210 340,-210 340,-174 "
         id="polygon65"
         style="fill:none;stroke:#808080" />
      <text
         x="367"
         y="-188.3"
         font-size="14.00"
         id="text67"
         style="font-size:14px;font-family:Times, serif;text-anchor:middle">33123</text>
    </g>
    <!-- node1&#45;&gt;node3 -->
    <g
       id="edge1"
       class="edge">
      <title
         id="title70">node1-&gt;node3</title>
      <path
         d="m 324.799,-113.67 c 5.844,-6.842 14.246,-17.3 20.201,-27.33 4.357,-7.339 8.37,-15.698 11.742,-23.452"
         id="path72"
         inkscape:connector-curvature="0"
         style="fill:none;stroke:#000000" />
      <polygon
         points="353.572,-165.943 353.572,-165.943 360.648,-173.828 360.033,-163.251 "
         id="polygon74"
         style="fill:#000000;stroke:#000000" />
      <text
         x="401.5"
         y="-144.8"
         font-size="14.00"
         id="text76"
         style="font-size:14px;font-family:Times, serif;text-anchor:middle">vcard:postal-code</text>
    </g>
    <!-- node4 -->
    <g
       id="node6"
       class="node">
      <title
         id="title79">node4</title>
      <polygon
         points="557.5,-174 557.5,-210 557.5,-210 416.5,-210 416.5,-174 "
         id="polygon81"
         style="fill:none;stroke:#808080" />
      <text
         x="487"
         y="-188.3"
         font-size="14.00"
         id="text83"
         style="font-size:14px;font-family:Times, serif;text-anchor:middle">North-Rhine Westfalia</text>
    </g>
    <!-- node1&#45;&gt;node4 -->
    <g
       id="edge5"
       class="edge">
      <title
         id="title86">node1-&gt;node4</title>
      <path
         d="m 325.527,-113.353 c 3.988,-3.474 9.154,-7.353 14.473,-9.647 47.099,-20.317 70.871,9.767 114,-18 8.957,-5.767 16.029,-14.922 21.291,-23.832"
         id="path88"
         inkscape:connector-curvature="0"
         style="fill:none;stroke:#000000" />
      <polygon
         points="472.323,-166.705 472.323,-166.705 480.122,-173.876 478.497,-163.406 "
         id="polygon90"
         style="fill:#000000;stroke:#000000" />
      <text
         x="504.5"
         y="-144.8"
         font-size="14.00"
         id="text92"
         style="font-size:14px;font-family:Times, serif;text-anchor:middle">vcard:region</text>
    </g>
    <!-- node5 -->
    <g
       id="node7"
       class="node">
      <title
         id="title95">node5</title>
      <polygon
         points="696.5,-174 696.5,-210 696.5,-210 575.5,-210 575.5,-174 "
         id="polygon97"
         style="fill:none;stroke:#808080" />
      <text
         x="636"
         y="-188.3"
         font-size="14.00"
         id="text99"
         style="font-size:14px;font-family:Times, serif;text-anchor:middle">Mustermannstr. 12</text>
    </g>
    <!-- node1&#45;&gt;node5 -->
    <g
       id="edge3"
       class="edge">
      <title
         id="title102">node1-&gt;node5</title>
      <path
         d="m 325.463,-113.508 c 3.972,-3.513 9.143,-7.38 14.537,-9.492 84.343,-33.021 116.228,7.976 203,-18 20.596,-6.166 41.84,-17.176 58.815,-27.298"
         id="path104"
         inkscape:connector-curvature="0"
         style="fill:none;stroke:#000000" />
      <polygon
         points="600.421,-171.549 600.421,-171.549 610.776,-173.794 604.081,-165.582 "
         id="polygon106"
         style="fill:#000000;stroke:#000000" />
      <text
         x="632.5"
         y="-144.8"
         font-size="14.00"
         id="text108"
         style="font-size:14px;font-family:Times, serif;text-anchor:middle">vcard:street-address</text>
    </g>
    <!-- node6 -->
    <g
       id="node8"
       class="node">
      <title
         id="title111">node6</title>
      <path
         d="m 718.5,-36 c 0,0 -259,0 -259,0 -6,0 -12,6 -12,12 0,0 0,12 0,12 0,6 6,12 12,12 0,0 259,0 259,0 6,0 12,-6 12,-12 0,0 0,-12 0,-12 0,-6 -6,-12 -12,-12"
         id="path113"
         inkscape:connector-curvature="0"
         style="fill:none;stroke:#808080" />
      <text
         x="589"
         y="-14.3"
         font-size="14.00"
         id="text115"
         style="font-size:14px;font-family:Times, serif;text-anchor:middle;fill:#0000ff">&lt;http://www.merchant1.com/MaxMustermann&gt;</text>
    </g>
    <!-- node6&#45;&gt;node1 -->
    <g
       id="edge7"
       class="edge">
      <title
         id="title118">node6-&gt;node1</title>
      <path
         d="M 447.849,-36.0177 C 427.712,-40.6439 407.555,-46.5248 389,-54 367.893,-62.5033 346.994,-78.3609 333.395,-89.9446"
         id="path120"
         inkscape:connector-curvature="0"
         style="fill:none;stroke:#000000" />
      <polygon
         points="330.778,-87.5852 330.778,-87.5852 325.584,-96.8194 335.403,-92.8399 "
         id="polygon122"
         style="fill:#000000;stroke:#000000" />
      <text
         x="415"
         y="-57.799999"
         font-size="14.00"
         id="text124"
         style="font-size:14px;font-family:Times, serif;text-anchor:middle">vcard:adr</text>
    </g>
    <!-- node7 -->
    <g
       id="node9"
       class="node">
      <title
         id="title127">node7</title>
      <path
         d="m 416.5,-123 c 0,0 -55,0 -55,0 -6,0 -12,6 -12,12 0,0 0,12 0,12 0,6 6,12 12,12 0,0 55,0 55,0 6,0 12,-6 12,-12 0,0 0,-12 0,-12 0,-6 -6,-12 -12,-12"
         id="path129"
         inkscape:connector-curvature="0"
         style="fill:none;stroke:#808080" />
      <text
         x="389"
         y="-101.3"
         font-size="14.00"
         id="text131"
         style="font-size:14px;font-family:Times, serif;text-anchor:middle;fill:#0000ff">foaf:Person</text>
    </g>
    <!-- node6&#45;&gt;node7 -->
    <g
       id="edge13"
       class="edge">
      <title
         id="title134">node6-&gt;node7</title>
      <path
         d="M 522.35,-36.0751 C 505.931,-41.1042 488.593,-47.1305 473,-54 455.894,-61.5361 437.959,-71.8428 423.074,-81.1411"
         id="path136"
         inkscape:connector-curvature="0"
         style="fill:none;stroke:#000000" />
      <polygon
         points="420.792,-78.4445 420.792,-78.4445 414.235,-86.7665 424.551,-84.35 "
         id="polygon138"
         style="fill:#000000;stroke:#000000" />
      <text
         x="494.5"
         y="-57.799999"
         font-size="14.00"
         id="text140"
         style="font-size:14px;font-family:Times, serif;text-anchor:middle">rdf:type</text>
    </g>
    <!-- Max Mustermann -->
    <g
       id="node10"
       class="node">
      <title
         id="title143">Max Mustermann</title>
      <polygon
         points="562,-87 562,-123 562,-123 446,-123 446,-87 "
         id="polygon145"
         style="fill:none;stroke:#808080" />
      <text
         x="504"
         y="-101.3"
         font-size="14.00"
         id="text147"
         style="font-size:14px;font-family:Times, serif;text-anchor:middle">Max Mustermann</text>
    </g>
    <!-- node6&#45;&gt;Max Mustermann -->
    <g
       id="edge10"
       class="edge">
      <title
         id="title150">node6-&gt;Max Mustermann</title>
      <path
         d="M 553.96,-36.0391 C 545.793,-41.069 537.573,-47.1048 531,-54 c -6.458,-6.7747 -11.838,-15.3953 -16.052,-23.5631"
         id="path152"
         inkscape:connector-curvature="0"
         style="fill:none;stroke:#000000" />
      <polygon
         points="511.686,-76.2728 511.686,-76.2728 510.543,-86.8058 518.005,-79.2847 "
         id="polygon154"
         style="fill:#000000;stroke:#000000" />
      <text
         x="557"
         y="-57.799999"
         font-size="14.00"
         id="text156"
         style="font-size:14px;font-family:Times, serif;text-anchor:middle">rdfs:label</text>
    </g>
    <!-- Mustermann -->
    <g
       id="node11"
       class="node">
      <title
         id="title159">Mustermann</title>
      <polygon
         points="666,-87 666,-123 666,-123 580,-123 580,-87 "
         id="polygon161"
         style="fill:none;stroke:#808080" />
      <text
         x="623"
         y="-101.3"
         font-size="14.00"
         id="text163"
         style="font-size:14px;font-family:Times, serif;text-anchor:middle">Mustermann</text>
    </g>
    <!-- node6&#45;&gt;Mustermann -->
    <g
       id="edge12"
       class="edge">
      <title
         id="title166">node6-&gt;Mustermann</title>
      <path
         d="M 586.347,-36.2845 C 585.545,-46.2127 585.795,-58.7127 590,-69 c 1.444,-3.5319 3.423,-6.918 5.701,-10.0977"
         id="path168"
         inkscape:connector-curvature="0"
         style="fill:none;stroke:#000000" />
      <polygon
         points="593.18,-81.5403 593.18,-81.5403 602.265,-86.9912 598.562,-77.0645 "
         id="polygon170"
         style="fill:#000000;stroke:#000000" />
      <text
         x="639.5"
         y="-57.799999"
         font-size="14.00"
         id="text172"
         style="font-size:14px;font-family:Times, serif;text-anchor:middle">foaf:family_name</text>
    </g>
    <!-- Male -->
    <g
       id="node12"
       class="node">
      <title
         id="title175">Male</title>
      <polygon
         points="738,-87 738,-123 738,-123 684,-123 684,-87 "
         id="polygon177"
         style="fill:none;stroke:#808080" />
      <text
         x="711"
         y="-101.3"
         font-size="14.00"
         id="text179"
         style="font-size:14px;font-family:Times, serif;text-anchor:middle">Male</text>
    </g>
    <!-- node6&#45;&gt;Male -->
    <g
       id="edge8"
       class="edge">
      <title
         id="title182">node6-&gt;Male</title>
      <path
         d="M 661.105,-36.0708 C 671.265,-40.7003 680.966,-46.5682 689,-54 c 6.705,-6.2025 11.479,-14.8151 14.826,-23.1464"
         id="path184"
         inkscape:connector-curvature="0"
         style="fill:none;stroke:#000000" />
      <polygon
         points="700.536,-78.3426 700.536,-78.3426 707.129,-86.6362 707.147,-76.0413 "
         id="polygon186"
         style="fill:#000000;stroke:#000000" />
      <text
         x="731.5"
         y="-57.799999"
         font-size="14.00"
         id="text188"
         style="font-size:14px;font-family:Times, serif;text-anchor:middle">foaf:gender</text>
    </g>
    <!-- Max -->
    <g
       id="node13"
       class="node">
      <title
         id="title191">Max</title>
      <polygon
         points="824,-87 824,-123 824,-123 770,-123 770,-87 "
         id="polygon193"
         style="fill:none;stroke:#808080" />
      <text
         x="797"
         y="-101.3"
         font-size="14.00"
         id="text195"
         style="font-size:14px;font-family:Times, serif;text-anchor:middle">Max</text>
    </g>
    <!-- node6&#45;&gt;Max -->
    <g
       id="edge9"
       class="edge">
      <title
         id="title198">node6-&gt;Max</title>
      <path
         d="M 713.37,-36.0889 C 736.759,-41.0111 757.013,-46.986 767,-54 c 8.274,-5.8107 14.658,-14.6979 19.368,-23.3765"
         id="path200"
         inkscape:connector-curvature="0"
         style="fill:none;stroke:#000000" />
      <polygon
         points="783.311,-79.0936 783.311,-79.0936 790.831,-86.5565 789.606,-76.0327 "
         id="polygon202"
         style="fill:#000000;stroke:#000000" />
      <text
         x="825"
         y="-57.799999"
         font-size="14.00"
         id="text204"
         style="font-size:14px;font-family:Times, serif;text-anchor:middle">foaf:givenname</text>
    </g>
    <!-- node8 -->
    <g
       id="node14"
       class="node">
      <title
         id="title207">node8</title>
      <polygon
         points="933,-87 933,-123 933,-123 879,-123 879,-87 "
         id="polygon209"
         style="fill:none;stroke:#808080" />
      <text
         x="906"
         y="-101.3"
         font-size="14.00"
         id="text211"
         style="font-size:14px;font-family:Times, serif;text-anchor:middle">Mr.</text>
    </g>
    <!-- node6&#45;&gt;node8 -->
    <g
       id="edge11"
       class="edge">
      <title
         id="title214">node6-&gt;node8</title>
      <path
         d="M 730.634,-25.7173 C 788.649,-30.6663 847.813,-39.2261 872,-54 c 9.272,-5.6635 16.604,-14.9203 22.05,-23.9392"
         id="path216"
         inkscape:connector-curvature="0"
         style="fill:none;stroke:#000000" />
      <polygon
         points="890.994,-79.6474 890.994,-79.6474 898.868,-86.7368 897.134,-76.2848 "
         id="polygon218"
         style="fill:#000000;stroke:#000000" />
      <text
         x="911.5"
         y="-57.799999"
         font-size="14.00"
         id="text220"
         style="font-size:14px;font-family:Times, serif;text-anchor:middle">foaf:title</text>
    </g>
  </g>
</svg>
