<?xml version="1.0" encoding="UTF-8" standalone="no"?>
<!-- Generated by graphviz version 2.38.0 (20140413.2041)
 -->

<!-- Title: test Pages: 1 -->

<svg
   xmlns:dc="http://purl.org/dc/elements/1.1/"
   xmlns:cc="http://creativecommons.org/ns#"
   xmlns:rdf="http://www.w3.org/1999/02/22-rdf-syntax-ns#"
   xmlns:svg="http://www.w3.org/2000/svg"
   xmlns="http://www.w3.org/2000/svg"
   xmlns:sodipodi="http://sodipodi.sourceforge.net/DTD/sodipodi-0.dtd"
   xmlns:inkscape="http://www.inkscape.org/namespaces/inkscape"
   width="782pt"
   height="315pt"
   viewBox="0 0 782 315"
   id="svg2"
   version="1.1"
   inkscape:version="0.91 r13725"
   sodipodi:docname="sample_rdf_schema.svg">
  <metadata
     id="metadata166">
    <rdf:RDF>
      <cc:Work
         rdf:about="">
        <dc:format>image/svg+xml</dc:format>
        <dc:type
           rdf:resource="http://purl.org/dc/dcmitype/StillImage" />
        <dc:title></dc:title>
      </cc:Work>
    </rdf:RDF>
  </metadata>
  <defs
     id="defs164" />
  <sodipodi:namedview
     pagecolor="#ffffff"
     bordercolor="#666666"
     borderopacity="1"
     objecttolerance="10"
     gridtolerance="10"
     guidetolerance="10"
     inkscape:pageopacity="0"
     inkscape:pageshadow="2"
     inkscape:window-width="1760"
     inkscape:window-height="998"
     id="namedview162"
     showgrid="false"
     fit-margin-top="5"
     fit-margin-left="5"
     fit-margin-right="5"
     fit-margin-bottom="5"
     inkscape:zoom="0.38134715"
     inkscape:cx="-158.9538"
     inkscape:cy="196.875"
     inkscape:window-x="0"
     inkscape:window-y="27"
     inkscape:window-maximized="0"
     inkscape:current-layer="svg2" />
  <g
     id="graph0"
     class="graph"
     transform="translate(9,306)">
    <title
       id="title5">test</title>
    <polygon
       points="768,4 -4,4 -4,4 -4,-301 768,-301 "
       id="polygon7"
       style="fill:#ffffff;stroke:none" />
    <!-- node1 -->
    <g
       id="node1"
       class="node">
      <title
         id="title10">node1</title>
      <path
         d="m 213.5,-36 c 0,0 -134,0 -134,0 -6,0 -12,6 -12,12 0,0 0,12 0,12 0,6 6,12 12,12 0,0 134,0 134,0 6,0 12,-6 12,-12 0,0 0,-12 0,-12 0,-6 -6,-12 -12,-12"
         id="path12"
         inkscape:connector-curvature="0"
         style="fill:none;stroke:#808080" />
      <text
         x="146.5"
         y="-14.3"
         font-size="14.00"
         id="text14"
         style="font-size:14px;font-family:Times, serif;text-anchor:middle;fill:#0000ff">&lt;http://music.org/Song1&gt;</text>
    </g>
    <!-- node2 -->
    <g
       id="node2"
       class="node">
      <title
         id="title17">node2</title>
      <polygon
         points="89,-87 89,-123 89,-123 7.10543e-15,-123 7.10543e-15,-87 "
         id="polygon19"
         style="fill:none;stroke:#808080" />
      <text
         x="44.5"
         y="-101.3"
         font-size="14.00"
         id="text21"
         style="font-size:14px;font-family:Times, serif;text-anchor:middle">The best of...</text>
    </g>
    <!-- node1&#45;&gt;node2 -->
    <g
       id="edge2"
       class="edge">
      <title
         id="title24">node1-&gt;node2</title>
      <path
         d="M 67.4372,-32.9409 C 57.2794,-37.9861 48.1289,-44.803 41.5,-54 36.8332,-60.4749 35.8983,-68.7339 36.6192,-76.6654"
         id="path26"
         inkscape:connector-curvature="0"
         style="fill:none;stroke:#000000" />
      <polygon
         points="33.2047,-77.4623 33.2047,-77.4623 38.3461,-86.726 40.1038,-76.2779 "
         id="polygon28"
         style="fill:#000000;stroke:#000000" />
      <text
         x="132"
         y="-57.799999"
         font-size="14.00"
         id="text30"
         style="font-size:14px;font-family:Times, serif;text-anchor:middle">&lt;http://www.example.com/title&gt;</text>
    </g>
    <!-- node3 -->
    <g
       id="node3"
       class="node">
      <title
         id="title33">node3</title>
      <path
         d="m 338.5,-123 c 0,0 -180,0 -180,0 -6,0 -12,6 -12,12 0,0 0,12 0,12 0,6 6,12 12,12 0,0 180,0 180,0 6,0 12,-6 12,-12 0,0 0,-12 0,-12 0,-6 -6,-12 -12,-12"
         id="path35"
         inkscape:connector-curvature="0"
         style="fill:none;stroke:#808080" />
      <text
         x="248.5"
         y="-101.3"
         font-size="14.00"
         id="text37"
         style="font-size:14px;font-family:Times, serif;text-anchor:middle;fill:#0000ff">&lt;http://www.example.com/Song&gt;</text>
    </g>
    <!-- node1&#45;&gt;node3 -->
    <g
       id="edge1"
       class="edge">
      <title
         id="title40">node1-&gt;node3</title>
      <path
         d="m 200.759,-36.1222 c 9.379,-4.7133 18.444,-10.5961 25.741,-17.8778 6.465,-6.4519 11.18,-15.1262 14.546,-23.4375"
         id="path42"
         inkscape:connector-curvature="0"
         style="fill:none;stroke:#000000" />
      <polygon
         points="237.753,-78.6238 237.753,-78.6238 244.402,-86.8726 244.348,-76.2779 "
         id="polygon44"
         style="fill:#000000;stroke:#000000" />
      <text
         x="259"
         y="-57.799999"
         font-size="14.00"
         id="text46"
         style="font-size:14px;font-family:Times, serif;text-anchor:middle">rdf:type</text>
    </g>
    <!-- node4 -->
    <g
       id="node4"
       class="node">
      <title
         id="title49">node4</title>
      <path
         d="m 331.5,-210 c 0,0 -186,0 -186,0 -6,0 -12,6 -12,12 0,0 0,12 0,12 0,6 6,12 12,12 0,0 186,0 186,0 6,0 12,-6 12,-12 0,0 0,-12 0,-12 0,-6 -6,-12 -12,-12"
         id="path51"
         inkscape:connector-curvature="0"
         style="fill:none;stroke:#808080" />
      <text
         x="238.5"
         y="-188.3"
         font-size="14.00"
         id="text53"
         style="font-size:14px;font-family:Times, serif;text-anchor:middle;fill:#0000ff">&lt;http://www.example.com/Audio&gt;</text>
    </g>
    <!-- node3&#45;&gt;node4 -->
    <g
       id="edge4"
       class="edge">
      <title
         id="title56">node3-&gt;node4</title>
      <path
         d="m 246.476,-123.201 c -1.369,-11.636 -3.206,-27.251 -4.772,-40.562"
         id="path58"
         inkscape:connector-curvature="0"
         style="fill:none;stroke:#000000" />
      <polygon
         points="238.213,-163.484 238.213,-163.484 240.521,-173.825 245.165,-164.302 "
         id="polygon60"
         style="fill:#000000;stroke:#000000" />
      <text
         x="288.5"
         y="-144.8"
         font-size="14.00"
         id="text62"
         style="font-size:14px;font-family:Times, serif;text-anchor:middle">rdfs:subClassOf</text>
    </g>
    <!-- node5 -->
    <g
       id="node5"
       class="node">
      <title
         id="title65">node5</title>
      <path
         d="m 353,-297 c 0,0 -47,0 -47,0 -6,0 -12,6 -12,12 0,0 0,12 0,12 0,6 6,12 12,12 0,0 47,0 47,0 6,0 12,-6 12,-12 0,0 0,-12 0,-12 0,-6 -6,-12 -12,-12"
         id="path67"
         inkscape:connector-curvature="0"
         style="fill:none;stroke:#808080" />
      <text
         x="329.5"
         y="-275.29999"
         font-size="14.00"
         id="text69"
         style="font-size:14px;font-family:Times, serif;text-anchor:middle;fill:#0000ff">rdfs:Class</text>
    </g>
    <!-- node3&#45;&gt;node5 -->
    <g
       id="edge5"
       class="edge">
      <title
         id="title72">node3-&gt;node5</title>
      <path
         d="m 308.835,-123.011 c 10.018,-4.695 19.717,-10.601 27.665,-17.989 11.938,-11.098 12.352,-17.114 16,-33 6.038,-26.294 -2.276,-56.396 -10.545,-77.426"
         id="path74"
         inkscape:connector-curvature="0"
         style="fill:none;stroke:#000000" />
      <polygon
         points="338.713,-250.107 338.713,-250.107 338.087,-260.683 345.172,-252.806 "
         id="polygon76"
         style="fill:#000000;stroke:#000000" />
      <text
         x="377"
         y="-188.3"
         font-size="14.00"
         id="text78"
         style="font-size:14px;font-family:Times, serif;text-anchor:middle">rdf:type</text>
    </g>
    <!-- node4&#45;&gt;node5 -->
    <g
       id="edge3"
       class="edge">
      <title
         id="title81">node4-&gt;node5</title>
      <path
         d="m 256.915,-210.201 c 13.445,-12.558 31.85,-29.75 46.762,-43.679"
         id="path83"
         inkscape:connector-curvature="0"
         style="fill:none;stroke:#000000" />
      <polygon
         points="301.415,-256.556 301.415,-256.556 311.112,-260.825 306.193,-251.441 "
         id="polygon85"
         style="fill:#000000;stroke:#000000" />
      <text
         x="311"
         y="-231.8"
         font-size="14.00"
         id="text87"
         style="font-size:14px;font-family:Times, serif;text-anchor:middle">rdf:type</text>
    </g>
    <!-- node6 -->
    <g
       id="node6"
       class="node">
      <title
         id="title90">node6</title>
      <path
         d="m 577,-123 c 0,0 -197,0 -197,0 -6,0 -12,6 -12,12 0,0 0,12 0,12 0,6 6,12 12,12 0,0 197,0 197,0 6,0 12,-6 12,-12 0,0 0,-12 0,-12 0,-6 -6,-12 -12,-12"
         id="path92"
         inkscape:connector-curvature="0"
         style="fill:none;stroke:#808080" />
      <text
         x="478.5"
         y="-101.3"
         font-size="14.00"
         id="text94"
         style="font-size:14px;font-family:Times, serif;text-anchor:middle;fill:#0000ff">&lt;http://www.example.com/attribute&gt;</text>
    </g>
    <!-- node7 -->
    <g
       id="node7"
       class="node">
      <title
         id="title97">node7</title>
      <path
         d="m 586.5,-210 c 0,0 -64,0 -64,0 -6,0 -12,6 -12,12 0,0 0,12 0,12 0,6 6,12 12,12 0,0 64,0 64,0 6,0 12,-6 12,-12 0,0 0,-12 0,-12 0,-6 -6,-12 -12,-12"
         id="path99"
         inkscape:connector-curvature="0"
         style="fill:none;stroke:#808080" />
      <text
         x="554.5"
         y="-188.3"
         font-size="14.00"
         id="text101"
         style="font-size:14px;font-family:Times, serif;text-anchor:middle;fill:#0000ff">rdfs:Property</text>
    </g>
    <!-- node6&#45;&gt;node7 -->
    <g
       id="edge6"
       class="edge">
      <title
         id="title104">node6-&gt;node7</title>
      <path
         d="m 493.88,-123.201 c 11.022,-12.328 26.037,-29.12 38.365,-42.909"
         id="path106"
         inkscape:connector-curvature="0"
         style="fill:none;stroke:#000000" />
      <polygon
         points="529.869,-168.703 529.869,-168.703 539.143,-173.825 535.087,-164.037 "
         id="polygon108"
         style="fill:#000000;stroke:#000000" />
      <text
         x="543"
         y="-144.8"
         font-size="14.00"
         id="text110"
         style="font-size:14px;font-family:Times, serif;text-anchor:middle">rdf:type</text>
    </g>
    <!-- node8 -->
    <g
       id="node8"
       class="node">
      <title
         id="title113">node8</title>
      <path
         d="m 651,-36 c 0,0 -173,0 -173,0 -6,0 -12,6 -12,12 0,0 0,12 0,12 0,6 6,12 12,12 0,0 173,0 173,0 6,0 12,-6 12,-12 0,0 0,-12 0,-12 0,-6 -6,-12 -12,-12"
         id="path115"
         inkscape:connector-curvature="0"
         style="fill:none;stroke:#808080" />
      <text
         x="564.5"
         y="-14.3"
         font-size="14.00"
         id="text117"
         style="font-size:14px;font-family:Times, serif;text-anchor:middle;fill:#0000ff">&lt;http://www.example.com/title&gt;</text>
    </g>
    <!-- node8&#45;&gt;node3 -->
    <g
       id="edge7"
       class="edge">
      <title
         id="title120">node8-&gt;node3</title>
      <path
         d="M 494.6,-36.011 C 472.173,-41.593 447.253,-47.9254 424.5,-54 388.761,-63.5414 349.117,-74.7486 316.517,-84.1317"
         id="path122"
         inkscape:connector-curvature="0"
         style="fill:none;stroke:#000000" />
      <polygon
         points="315.276,-80.8468 315.276,-80.8468 306.638,-86.9813 317.216,-87.5726 "
         id="polygon124"
         style="fill:#000000;stroke:#000000" />
      <text
         x="458"
         y="-57.799999"
         font-size="14.00"
         id="text126"
         style="font-size:14px;font-family:Times, serif;text-anchor:middle">rdfs:domain</text>
    </g>
    <!-- node8&#45;&gt;node6 -->
    <g
       id="edge8"
       class="edge">
      <title
         id="title129">node8-&gt;node6</title>
      <path
         d="M 529.534,-36.1102 C 521.365,-41.1383 513.126,-47.1555 506.5,-54 c -6.637,-6.8556 -12.23,-15.5921 -16.631,-23.8379"
         id="path131"
         inkscape:connector-curvature="0"
         style="fill:none;stroke:#000000" />
      <polygon
         points="486.725,-76.2994 486.725,-76.2994 485.415,-86.8129 492.995,-79.4111 "
         id="polygon133"
         style="fill:#000000;stroke:#000000" />
      <text
         x="559"
         y="-57.799999"
         font-size="14.00"
         id="text135"
         style="font-size:14px;font-family:Times, serif;text-anchor:middle">rdfs:subPropertyOf</text>
    </g>
    <!-- node8&#45;&gt;node7 -->
    <g
       id="edge10"
       class="edge">
      <title
         id="title138">node8-&gt;node7</title>
      <path
         d="M 596.386,-36.3291 C 602.478,-41.1984 608.03,-47.0902 611.5,-54 c 2.992,-5.9578 0.843,-8.3869 0,-15 -3.136,-24.5943 -4.145,-31.249 -14,-54 -6.433,-14.852 -15.853,-30.19 -24.237,-42.532"
         id="path140"
         inkscape:connector-curvature="0"
         style="fill:none;stroke:#000000" />
      <polygon
         points="570.249,-163.736 570.249,-163.736 567.399,-173.94 575.991,-167.74 "
         id="polygon142"
         style="fill:#000000;stroke:#000000" />
      <text
         x="631"
         y="-101.3"
         font-size="14.00"
         id="text144"
         style="font-size:14px;font-family:Times, serif;text-anchor:middle">rdf:type</text>
    </g>
    <!-- node9 -->
    <g
       id="node9"
       class="node">
      <title
         id="title147">node9</title>
      <path
         d="m 752,-123 c 0,0 -53,0 -53,0 -6,0 -12,6 -12,12 0,0 0,12 0,12 0,6 6,12 12,12 0,0 53,0 53,0 6,0 12,-6 12,-12 0,0 0,-12 0,-12 0,-6 -6,-12 -12,-12"
         id="path149"
         inkscape:connector-curvature="0"
         style="fill:none;stroke:#808080" />
      <text
         x="725.5"
         y="-101.3"
         font-size="14.00"
         id="text151"
         style="font-size:14px;font-family:Times, serif;text-anchor:middle;fill:#0000ff">rdfs:Literal</text>
    </g>
    <!-- node8&#45;&gt;node9 -->
    <g
       id="edge9"
       class="edge">
      <title
         id="title154">node8-&gt;node9</title>
      <path
         d="M 602.979,-36.1489 C 614.803,-41.634 627.784,-47.8765 639.5,-54 c 16.351,-8.5464 34.031,-18.6668 49.084,-27.5594"
         id="path156"
         inkscape:connector-curvature="0"
         style="fill:none;stroke:#000000" />
      <polygon
         points="687.198,-84.8074 687.198,-84.8074 697.582,-86.9126 690.777,-78.7916 "
         id="polygon158"
         style="fill:#000000;stroke:#000000" />
      <text
         x="694"
         y="-57.799999"
         font-size="14.00"
         id="text160"
         style="font-size:14px;font-family:Times, serif;text-anchor:middle">rdfs:range</text>
    </g>
  </g>
</svg>
