<?xml version="1.0" encoding="UTF-8" standalone="no"?>
<!-- Generated by graphviz version 2.38.0 (20140413.2041)
 -->

<!-- Title: test Pages: 1 -->

<svg
   xmlns:dc="http://purl.org/dc/elements/1.1/"
   xmlns:cc="http://creativecommons.org/ns#"
   xmlns:rdf="http://www.w3.org/1999/02/22-rdf-syntax-ns#"
   xmlns:svg="http://www.w3.org/2000/svg"
   xmlns="http://www.w3.org/2000/svg"
   xmlns:sodipodi="http://sodipodi.sourceforge.net/DTD/sodipodi-0.dtd"
   xmlns:inkscape="http://www.inkscape.org/namespaces/inkscape"
   width="1034.5pt"
   height="228pt"
   viewBox="0 0 1033.9954 228"
   id="svg2"
   version="1.1"
   inkscape:version="0.91 r13725"
   sodipodi:docname="sample_customer_mustermann.svg">
  <metadata
     id="metadata226">
    <rdf:RDF>
      <cc:Work
         rdf:about="">
        <dc:format>image/svg+xml</dc:format>
        <dc:type
           rdf:resource="http://purl.org/dc/dcmitype/StillImage" />
        <dc:title></dc:title>
      </cc:Work>
    </rdf:RDF>
  </metadata>
  <defs
     id="defs224" />
  <sodipodi:namedview
     pagecolor="#ffffff"
     bordercolor="#666666"
     borderopacity="1"
     objecttolerance="10"
     gridtolerance="10"
     guidetolerance="10"
     inkscape:pageopacity="0"
     inkscape:pageshadow="2"
     inkscape:window-width="1280"
     inkscape:window-height="727"
     id="namedview222"
     showgrid="false"
     inkscape:zoom="0.87925817"
     inkscape:cx="646.56537"
     inkscape:cy="142.5"
     inkscape:window-x="0"
     inkscape:window-y="27"
     inkscape:window-maximized="1"
     inkscape:current-layer="graph0"
     fit-margin-top="5"
     fit-margin-left="5"
     fit-margin-right="5"
     fit-margin-bottom="5" />
  <g
     id="graph0"
     class="graph"
     transform="translate(8.75,219)">
    <title
       id="title5">test</title>
    <polygon
       points="1020.5,4 -4,4 -4,4 -4,-214 1020.5,-214 "
       id="polygon7"
       style="fill:#ffffff;stroke:none" />
    <!-- node1 -->
    <g
       id="node1"
       class="node">
      <title
         id="title10">node1</title>
      <circle
         cx="385.5"
         cy="-105"
         id="ellipse12"
         r="10.8"
         style="fill:#ffffff;stroke:#808080" />
    </g>
    <!-- node2 -->
    <g
       id="node2"
       class="node"
       transform="translate(3.2,0)">
      <title
         id="title15">node2</title>
      <path
         d="m 91.90166,-210.04208 c 0,0 -72.80332,0 -72.80332,0 -5.020919,0 -10.0418374,6.01403 -10.0418374,12.02805 0,0 0,12.02806 0,12.02806 0,6.01402 5.0209184,12.02805 10.0418374,12.02805 0,0 72.80332,0 72.80332,0 5.020919,0 10.04184,-6.01403 10.04184,-12.02805 0,0 0,-12.02806 0,-12.02806 0,-6.01402 -5.020921,-12.02805 -10.04184,-12.02805"
         id="path17"
         inkscape:connector-curvature="0"
         style="fill:none;stroke:#808080;stroke-width:0.91584712" />
      <text
         x="55.5"
         y="-188.3"
         font-size="14.00"
         id="text19"
         style="font-size:14px;font-family:Times, serif;text-anchor:middle;fill:#0000ff">vcard:Home</text>
    </g>
    <!-- node1&#45;&gt;node2 -->
    <g
       id="edge6"
       class="edge">
      <title
         id="title22">node1-&gt;node2</title>
      <path
         d="M 374.481,-105.532 C 337.383,-104.35 214.221,-103.65 122.5,-141 107.319,-147.182 92.4925,-157.641 80.6626,-167.399"
         id="path24"
         inkscape:connector-curvature="0"
         style="fill:none;stroke:#000000" />
      <polygon
         points="78.2978,-164.817 78.2978,-164.817 72.9839,-173.982 82.8539,-170.131 "
         id="polygon26"
         style="fill:#000000;stroke:#000000" />
      <text
         x="144"
         y="-144.8"
         font-size="14.00"
         id="text28"
         style="font-size:14px;font-family:Times, serif;text-anchor:middle">rdf:type</text>
    </g>
    <!-- Germany -->
    <g
       id="node3"
       class="node">
      <title
         id="title31">Germany</title>
      <polygon
         points="197.5,-174 197.5,-210 197.5,-210 129.5,-210 129.5,-174 "
         id="polygon33"
         style="fill:none;stroke:#808080" />
      <text
         x="163.5"
         y="-188.3"
         font-size="14.00"
         id="text35"
         style="font-size:14px;font-family:Times, serif;text-anchor:middle">Germany</text>
    </g>
    <!-- node1&#45;&gt;Germany -->
    <g
       id="edge2"
       class="edge">
      <title
         id="title38">node1-&gt;Germany</title>
      <path
         d="M 374.684,-106.393 C 336.573,-107.992 209.228,-115.204 179.5,-141 c -6.656,-5.775 -10.566,-14.321 -12.856,-22.719"
         id="path40"
         inkscape:connector-curvature="0"
         style="fill:none;stroke:#000000" />
      <polygon
         points="163.179,-163.194 163.179,-163.194 164.58,-173.696 170.034,-164.612 "
         id="polygon42"
         style="fill:#000000;stroke:#000000" />
      <text
         x="248"
         y="-144.8"
         font-size="14.00"
         id="text44"
         style="font-size:14px;font-family:Times, serif;text-anchor:middle">vcard2006:country-name</text>
    </g>
    <!-- Musterstadt -->
    <g
       id="node4"
       class="node">
      <title
         id="title47">Musterstadt</title>
      <polygon
         points="364,-174 364,-210 364,-210 283,-210 283,-174 "
         id="polygon49"
         style="fill:none;stroke:#808080" />
      <text
         x="323.5"
         y="-188.3"
         font-size="14.00"
         id="text51"
         style="font-size:14px;font-family:Times, serif;text-anchor:middle">Musterstadt</text>
    </g>
    <!-- node1&#45;&gt;Musterstadt -->
    <g
       id="edge4"
       class="edge">
      <title
         id="title54">node1-&gt;Musterstadt</title>
      <path
         d="m 375.048,-108.56 c -14.305,-4.125 -39.469,-13.743 -50.548,-32.44 -3.956,-6.676 -5.271,-14.784 -5.308,-22.512"
         id="path56"
         inkscape:connector-curvature="0"
         style="fill:none;stroke:#000000" />
      <polygon
         points="315.707,-163.873 315.707,-163.873 319.807,-173.643 322.694,-163.449 "
         id="polygon58"
         style="fill:#000000;stroke:#000000" />
      <text
         x="375.5"
         y="-144.8"
         font-size="14.00"
         id="text60"
         style="font-size:14px;font-family:Times, serif;text-anchor:middle">vcard2006:locality</text>
    </g>
    <!-- node3 -->
    <g
       id="node5"
       class="node">
      <title
         id="title63">node3</title>
      <polygon
         points="475.5,-174 475.5,-210 475.5,-210 421.5,-210 421.5,-174 "
         id="polygon65"
         style="fill:none;stroke:#808080" />
      <text
         x="448.5"
         y="-188.3"
         font-size="14.00"
         id="text67"
         style="font-size:14px;font-family:Times, serif;text-anchor:middle">33123</text>
    </g>
    <!-- node1&#45;&gt;node3 -->
    <g
       id="edge1"
       class="edge">
      <title
         id="title70">node1-&gt;node3</title>
      <path
         d="m 394.365,-111.77 c 9.073,-6.279 23.089,-17.063 32.135,-29.23 5.23,-7.034 9.551,-15.506 12.938,-23.461"
         id="path72"
         inkscape:connector-curvature="0"
         style="fill:none;stroke:#000000" />
      <polygon
         points="436.185,-165.753 436.185,-165.753 443.104,-173.776 442.699,-163.189 "
         id="polygon74"
         style="fill:#000000;stroke:#000000" />
      <text
         x="497.5"
         y="-144.8"
         font-size="14.00"
         id="text76"
         style="font-size:14px;font-family:Times, serif;text-anchor:middle">vcard2006:postal-code</text>
    </g>
    <!-- node4 -->
    <g
       id="node6"
       class="node">
      <title
         id="title79">node4</title>
      <polygon
         points="666,-174 666,-210 666,-210 525,-210 525,-174 "
         id="polygon81"
         style="fill:none;stroke:#808080" />
      <text
         x="595.5"
         y="-188.3"
         font-size="14.00"
         id="text83"
         style="font-size:14px;font-family:Times, serif;text-anchor:middle">North-Rhine Westfalia</text>
    </g>
    <!-- node1&#45;&gt;node4 -->
    <g
       id="edge5"
       class="edge">
      <title
         id="title86">node1-&gt;node4</title>
      <path
         d="m 394.656,-111.315 c 7.092,-3.869 17.289,-8.9 26.844,-11.685 61.074,-17.803 88.229,15.996 142,-18 8.922,-5.641 15.827,-14.772 20.901,-23.697"
         id="path88"
         inkscape:connector-curvature="0"
         style="fill:none;stroke:#000000" />
      <polygon
         points="581.368,-166.454 581.368,-166.454 589.033,-173.768 587.603,-163.27 "
         id="polygon90"
         style="fill:#000000;stroke:#000000" />
      <text
         x="626.5"
         y="-144.8"
         font-size="14.00"
         id="text92"
         style="font-size:14px;font-family:Times, serif;text-anchor:middle">vcard2006:region</text>
    </g>
    <!-- node5 -->
    <g
       id="node7"
       class="node">
      <title
         id="title95">node5</title>
      <polygon
         points="805,-174 805,-210 805,-210 684,-210 684,-174 "
         id="polygon97"
         style="fill:none;stroke:#808080" />
      <text
         x="744.5"
         y="-188.3"
         font-size="14.00"
         id="text99"
         style="font-size:14px;font-family:Times, serif;text-anchor:middle">Mustermannstr. 12</text>
    </g>
    <!-- node1&#45;&gt;node5 -->
    <g
       id="edge3"
       class="edge">
      <title
         id="title102">node1-&gt;node5</title>
      <path
         d="m 394.32,-111.306 c 7.08,-3.972 17.416,-9.143 27.18,-11.694 110.783,-28.944 149.803,22.243 257,-18 15.309,-5.747 30.044,-16.258 41.692,-26.166"
         id="path104"
         inkscape:connector-curvature="0"
         style="fill:none;stroke:#000000" />
      <polygon
         points="717.931,-169.839 717.931,-169.839 727.733,-173.862 722.58,-164.605 "
         id="polygon106"
         style="fill:#000000;stroke:#000000" />
      <text
         x="772.5"
         y="-144.8"
         font-size="14.00"
         id="text108"
         style="font-size:14px;font-family:Times, serif;text-anchor:middle">vcard2006:street-address</text>
    </g>
    <!-- node6 -->
    <g
       id="node8"
       class="node">
      <title
         id="title111">node6</title>
      <path
         d="m 829.5,-36 c 0,0 -318,0 -318,0 -6,0 -12,6 -12,12 0,0 0,12 0,12 0,6 6,12 12,12 0,0 318,0 318,0 6,0 12,-6 12,-12 0,0 0,-12 0,-12 0,-6 -6,-12 -12,-12"
         id="path113"
         inkscape:connector-curvature="0"
         style="fill:none;stroke:#808080" />
      <text
         x="670.5"
         y="-14.3"
         font-size="14.00"
         id="text115"
         style="font-size:14px;font-family:Times, serif;text-anchor:middle;fill:#0000ff">&lt;http://www.merchant1.com/customers/MaxMustermann&gt;</text>
    </g>
    <!-- node6&#45;&gt;node1 -->
    <g
       id="edge7"
       class="edge">
      <title
         id="title118">node6-&gt;node1</title>
      <path
         d="M 499.468,-34.7403 C 480.116,-39.6111 461.061,-45.8989 443.5,-54 426.014,-62.0662 409.748,-77.011 398.919,-88.4685"
         id="path120"
         inkscape:connector-curvature="0"
         style="fill:none;stroke:#000000" />
      <polygon
         points="396.174,-86.2854 396.174,-86.2854 392.055,-96.0467 401.362,-90.9846 "
         id="polygon122"
         style="fill:#000000;stroke:#000000" />
      <text
         x="483"
         y="-57.799999"
         font-size="14.00"
         id="text124"
         style="font-size:14px;font-family:Times, serif;text-anchor:middle">vcard2006:adr</text>
    </g>
    <!-- node7 -->
    <g
       id="node9"
       class="node">
      <title
         id="title127">node7</title>
      <path
         d="m 498,-123 c 0,0 -55,0 -55,0 -6,0 -12,6 -12,12 0,0 0,12 0,12 0,6 6,12 12,12 0,0 55,0 55,0 6,0 12,-6 12,-12 0,0 0,-12 0,-12 0,-6 -6,-12 -12,-12"
         id="path129"
         inkscape:connector-curvature="0"
         style="fill:none;stroke:#808080" />
      <text
         x="470.5"
         y="-101.3"
         font-size="14.00"
         id="text131"
         style="font-size:14px;font-family:Times, serif;text-anchor:middle;fill:#0000ff">foaf:Person</text>
    </g>
    <!-- node6&#45;&gt;node7 -->
    <g
       id="edge13"
       class="edge">
      <title
         id="title134">node6-&gt;node7</title>
      <path
         d="M 603.85,-36.0751 C 587.431,-41.1042 570.093,-47.1305 554.5,-54 537.394,-61.5361 519.459,-71.8428 504.574,-81.1411"
         id="path136"
         inkscape:connector-curvature="0"
         style="fill:none;stroke:#000000" />
      <polygon
         points="502.292,-78.4445 502.292,-78.4445 495.735,-86.7665 506.051,-84.35 "
         id="polygon138"
         style="fill:#000000;stroke:#000000" />
      <text
         x="576"
         y="-57.799999"
         font-size="14.00"
         id="text140"
         style="font-size:14px;font-family:Times, serif;text-anchor:middle">rdf:type</text>
    </g>
    <!-- Max Mustermann -->
    <g
       id="node10"
       class="node">
      <title
         id="title143">Max Mustermann</title>
      <polygon
         points="643.5,-87 643.5,-123 643.5,-123 527.5,-123 527.5,-87 "
         id="polygon145"
         style="fill:none;stroke:#808080" />
      <text
         x="585.5"
         y="-101.3"
         font-size="14.00"
         id="text147"
         style="font-size:14px;font-family:Times, serif;text-anchor:middle">Max Mustermann</text>
    </g>
    <!-- node6&#45;&gt;Max Mustermann -->
    <g
       id="edge10"
       class="edge">
      <title
         id="title150">node6-&gt;Max Mustermann</title>
      <path
         d="M 635.46,-36.0391 C 627.293,-41.069 619.073,-47.1048 612.5,-54 c -6.458,-6.7747 -11.838,-15.3953 -16.052,-23.5631"
         id="path152"
         inkscape:connector-curvature="0"
         style="fill:none;stroke:#000000" />
      <polygon
         points="593.186,-76.2728 593.186,-76.2728 592.043,-86.8058 599.505,-79.2847 "
         id="polygon154"
         style="fill:#000000;stroke:#000000" />
      <text
         x="638.5"
         y="-57.799999"
         font-size="14.00"
         id="text156"
         style="font-size:14px;font-family:Times, serif;text-anchor:middle">rdfs:label</text>
    </g>
    <!-- Mustermann -->
    <g
       id="node11"
       class="node">
      <title
         id="title159">Mustermann</title>
      <polygon
         points="747.5,-87 747.5,-123 747.5,-123 661.5,-123 661.5,-87 "
         id="polygon161"
         style="fill:none;stroke:#808080" />
      <text
         x="704.5"
         y="-101.3"
         font-size="14.00"
         id="text163"
         style="font-size:14px;font-family:Times, serif;text-anchor:middle">Mustermann</text>
    </g>
    <!-- node6&#45;&gt;Mustermann -->
    <g
       id="edge12"
       class="edge">
      <title
         id="title166">node6-&gt;Mustermann</title>
      <path
         d="m 667.847,-36.2845 c -0.802,-9.9282 -0.552,-22.4282 3.653,-32.7155 1.444,-3.5319 3.423,-6.918 5.701,-10.0977"
         id="path168"
         inkscape:connector-curvature="0"
         style="fill:none;stroke:#000000" />
      <polygon
         points="674.68,-81.5403 674.68,-81.5403 683.765,-86.9912 680.062,-77.0645 "
         id="polygon170"
         style="fill:#000000;stroke:#000000" />
      <text
         x="721"
         y="-57.799999"
         font-size="14.00"
         id="text172"
         style="font-size:14px;font-family:Times, serif;text-anchor:middle">foaf:family_name</text>
    </g>
    <!-- Male -->
    <g
       id="node12"
       class="node">
      <title
         id="title175">Male</title>
      <polygon
         points="819.5,-87 819.5,-123 819.5,-123 765.5,-123 765.5,-87 "
         id="polygon177"
         style="fill:none;stroke:#808080" />
      <text
         x="792.5"
         y="-101.3"
         font-size="14.00"
         id="text179"
         style="font-size:14px;font-family:Times, serif;text-anchor:middle">Male</text>
    </g>
    <!-- node6&#45;&gt;Male -->
    <g
       id="edge8"
       class="edge">
      <title
         id="title182">node6-&gt;Male</title>
      <path
         d="m 742.605,-36.0708 c 10.16,-4.6295 19.861,-10.4974 27.895,-17.9292 6.705,-6.2025 11.479,-14.8151 14.826,-23.1464"
         id="path184"
         inkscape:connector-curvature="0"
         style="fill:none;stroke:#000000" />
      <polygon
         points="782.036,-78.3426 782.036,-78.3426 788.629,-86.6362 788.647,-76.0413 "
         id="polygon186"
         style="fill:#000000;stroke:#000000" />
      <text
         x="813"
         y="-57.799999"
         font-size="14.00"
         id="text188"
         style="font-size:14px;font-family:Times, serif;text-anchor:middle">foaf:gender</text>
    </g>
    <!-- Max -->
    <g
       id="node13"
       class="node">
      <title
         id="title191">Max</title>
      <polygon
         points="905.5,-87 905.5,-123 905.5,-123 851.5,-123 851.5,-87 "
         id="polygon193"
         style="fill:none;stroke:#808080" />
      <text
         x="878.5"
         y="-101.3"
         font-size="14.00"
         id="text195"
         style="font-size:14px;font-family:Times, serif;text-anchor:middle">Max</text>
    </g>
    <!-- node6&#45;&gt;Max -->
    <g
       id="edge9"
       class="edge">
      <title
         id="title198">node6-&gt;Max</title>
      <path
         d="M 794.87,-36.0889 C 818.259,-41.0111 838.513,-46.986 848.5,-54 c 8.274,-5.8107 14.658,-14.6979 19.368,-23.3765"
         id="path200"
         inkscape:connector-curvature="0"
         style="fill:none;stroke:#000000" />
      <polygon
         points="864.811,-79.0936 864.811,-79.0936 872.331,-86.5565 871.106,-76.0327 "
         id="polygon202"
         style="fill:#000000;stroke:#000000" />
      <text
         x="906.5"
         y="-57.799999"
         font-size="14.00"
         id="text204"
         style="font-size:14px;font-family:Times, serif;text-anchor:middle">foaf:givenname</text>
    </g>
    <!-- node8 -->
    <g
       id="node14"
       class="node">
      <title
         id="title207">node8</title>
      <polygon
         points="1014.5,-87 1014.5,-123 1014.5,-123 960.5,-123 960.5,-87 "
         id="polygon209"
         style="fill:none;stroke:#808080" />
      <text
         x="987.5"
         y="-101.3"
         font-size="14.00"
         id="text211"
         style="font-size:14px;font-family:Times, serif;text-anchor:middle">Mr.</text>
    </g>
    <!-- node6&#45;&gt;node8 -->
    <g
       id="edge11"
       class="edge">
      <title
         id="title214">node6-&gt;node8</title>
      <path
         d="M 841.696,-28.5729 C 889.286,-33.7621 933.432,-41.7422 953.5,-54 c 9.272,-5.6635 16.604,-14.9203 22.05,-23.9392"
         id="path216"
         inkscape:connector-curvature="0"
         style="fill:none;stroke:#000000" />
      <polygon
         points="972.494,-79.6474 972.494,-79.6474 980.368,-86.7368 978.634,-76.2848 "
         id="polygon218"
         style="fill:#000000;stroke:#000000" />
      <text
         x="993"
         y="-57.799999"
         font-size="14.00"
         id="text220"
         style="font-size:14px;font-family:Times, serif;text-anchor:middle">foaf:title</text>
    </g>
  </g>
</svg>
