<?xml version="1.0" standalone="no"?>
<!DOCTYPE svg PUBLIC "-//W3C//DTD SVG 1.1//EN" "http://www.w3.org/Graphics/SVG/1.1/DTD/svg11.dtd">
<svg width="100%" height="100%" viewBox="0 0 2240 1372" version="1.1" xmlns="http://www.w3.org/2000/svg" xmlns:xlink="http://www.w3.org/1999/xlink" xml:space="preserve" style="fill-rule:evenodd;clip-rule:evenodd;stroke-linecap:round;stroke-linejoin:round;stroke-miterlimit:1.41421;">
    <g transform="matrix(1,0,0,1,-83.6123,-575.691)">
        <g transform="matrix(1,0,0,1,30.083,10.8911)">
            <g transform="matrix(1,0,0,1,70.652,35.7436)">
                <circle cx="359.673" cy="595.988" r="26.535" style="fill:none;stroke-width:1px;stroke:black;"/>
                <g transform="matrix(1,0,0,1,-1,0)">
                    <path d="M360.163,621.141L359.163,719.947" style="fill:none;stroke-width:1px;stroke:black;"/>
                </g>
                <path d="M313.952,638.078L406.673,638.078" style="fill:none;stroke-width:1px;stroke:black;"/>
                <g transform="matrix(1.2034,0,0,1.2034,-72.93,-138.53)">
                    <path d="M358.554,681.07L326.098,713.526" style="fill:none;stroke-width:0.83px;stroke:black;"/>
                </g>
                <g transform="matrix(-1.21152,0,0,1.16417,793.475,-111.923)">
                    <path d="M358.554,681.07L326.098,713.526" style="fill:none;stroke-width:0.84px;stroke:black;"/>
                </g>
            </g>
            <g transform="matrix(1,0,0,1,141.354,-22.1391)">
                <text x="159.432px" y="832.153px" style="font-family:'ArialMT';font-size:41.667px;fill:black;">Stakeholder <tspan x="391.081px " y="832.153px ">A</tspan></text>
            </g>
        </g>
        <g transform="matrix(1,0,0,1,-190.588,6.91144)">
            <path d="M1185.22,1106.91C1185.22,1068.1 1287.42,1036.59 1413.31,1036.59C1539.19,1036.59 1641.4,1068.1 1641.4,1106.91C1711.38,1079.47 1840.47,1085.53 1929.49,1120.44C2018.5,1155.35 2033.95,1205.97 1963.97,1233.41C2062.94,1233.41 2143.29,1273.49 2143.29,1322.86C2143.29,1372.23 2062.94,1412.31 1963.97,1412.31C2033.95,1439.76 2018.5,1490.38 1929.49,1525.29C1840.47,1560.2 1711.38,1566.26 1641.4,1538.81C1641.4,1577.62 1539.19,1609.14 1413.31,1609.14C1287.42,1609.14 1185.22,1577.62 1185.22,1538.81C1115.23,1566.26 986.146,1560.2 897.131,1525.29C808.115,1490.38 792.664,1439.76 862.648,1412.31C763.676,1412.31 683.323,1372.23 683.323,1322.86C683.323,1273.49 763.676,1233.41 862.648,1233.41C792.664,1205.97 808.115,1155.35 897.131,1120.44C986.146,1085.53 1115.23,1079.47 1185.22,1106.91Z" style="fill:rgb(235,235,235);"/>
        </g>
        <g transform="matrix(1,0,0,1,8.84183,18.2938)">
            <g transform="matrix(1,0,0,1,82.6829,1123.36)">
                <circle cx="359.673" cy="595.988" r="26.535" style="fill:none;stroke-width:1px;stroke:black;"/>
                <g transform="matrix(1,0,0,1,-1,0)">
                    <path d="M360.163,621.141L359.163,719.947" style="fill:none;stroke-width:1px;stroke:black;"/>
                </g>
                <path d="M313.952,638.078L406.673,638.078" style="fill:none;stroke-width:1px;stroke:black;"/>
                <g transform="matrix(1.2034,0,0,1.2034,-72.93,-138.53)">
                    <path d="M358.554,681.07L326.098,713.526" style="fill:none;stroke-width:0.83px;stroke:black;"/>
                </g>
                <g transform="matrix(-1.21152,0,0,1.16417,793.475,-111.923)">
                    <path d="M358.554,681.07L326.098,713.526" style="fill:none;stroke-width:0.84px;stroke:black;"/>
                </g>
            </g>
            <g transform="matrix(1,0,0,1,153.385,1065.48)">
                <text x="159.432px" y="832.153px" style="font-family:'ArialMT';font-size:41.667px;fill:black;">Stakeholder C</text>
            </g>
        </g>
        <g transform="matrix(1,0,0,1,-56.5739,-20.3431)">
            <g transform="matrix(1,0,0,1,1592.11,48.8066)">
                <circle cx="359.673" cy="595.988" r="26.535" style="fill:none;stroke-width:1px;stroke:black;"/>
                <g transform="matrix(1,0,0,1,-1,0)">
                    <path d="M360.163,621.141L359.163,719.947" style="fill:none;stroke-width:1px;stroke:black;"/>
                </g>
                <path d="M313.952,638.078L406.673,638.078" style="fill:none;stroke-width:1px;stroke:black;"/>
                <g transform="matrix(1.2034,0,0,1.2034,-72.93,-138.53)">
                    <path d="M358.554,681.07L326.098,713.526" style="fill:none;stroke-width:0.83px;stroke:black;"/>
                </g>
                <g transform="matrix(-1.21152,0,0,1.16417,793.475,-111.923)">
                    <path d="M358.554,681.07L326.098,713.526" style="fill:none;stroke-width:0.84px;stroke:black;"/>
                </g>
            </g>
            <g transform="matrix(1,0,0,1,1662.81,-9.07609)">
                <text x="159.432px" y="832.153px" style="font-family:'ArialMT';font-size:41.667px;fill:black;">Stakeholder B</text>
            </g>
        </g>
        <g transform="matrix(1,0,0,1,54.8585,52.2106)">
            <g transform="matrix(1,0,0,1,1548.09,1119.72)">
                <circle cx="359.673" cy="595.988" r="26.535" style="fill:none;stroke-width:1px;stroke:black;"/>
                <g transform="matrix(1,0,0,1,-1,0)">
                    <path d="M360.163,621.141L359.163,719.947" style="fill:none;stroke-width:1px;stroke:black;"/>
                </g>
                <path d="M313.952,638.078L406.673,638.078" style="fill:none;stroke-width:1px;stroke:black;"/>
                <g transform="matrix(1.2034,0,0,1.2034,-72.93,-138.53)">
                    <path d="M358.554,681.07L326.098,713.526" style="fill:none;stroke-width:0.83px;stroke:black;"/>
                </g>
                <g transform="matrix(-1.21152,0,0,1.16417,793.475,-111.923)">
                    <path d="M358.554,681.07L326.098,713.526" style="fill:none;stroke-width:0.84px;stroke:black;"/>
                </g>
            </g>
            <g transform="matrix(1,0,0,1,1618.8,1061.83)">
                <text x="159.432px" y="832.153px" style="font-family:'ArialMT';font-size:41.667px;fill:black;">Stakeholder D</text>
            </g>
        </g>
        <g transform="matrix(1,0,0,1,-28.6554,-59.6478)">
            <text x="953.715px" y="1278.64px" style="font-family:'ArialMT';font-size:50px;fill:black;">Shared Information Space</text>
        </g>
        <g transform="matrix(1,0,0,1,66.0259,-3.44233)">
            <g transform="matrix(1,0,0,1,131.407,19.4451)">
                <circle cx="823.752" cy="1324.95" r="22.087" style="fill:rgb(109,104,104);stroke-width:1px;stroke:black;"/>
            </g>
            <g transform="matrix(1,0,0,1,207.392,62.9175)">
                <circle cx="823.752" cy="1324.95" r="22.087" style="fill:rgb(109,104,104);stroke-width:1px;stroke:black;"/>
            </g>
            <g transform="matrix(1,0,0,1,113.113,107.461)">
                <circle cx="823.752" cy="1324.95" r="22.087" style="fill:rgb(109,104,104);stroke-width:1px;stroke:black;"/>
            </g>
            <g transform="matrix(1,0,0,1,54.5246,-29.0698)">
                <circle cx="823.752" cy="1324.95" r="22.087" style="fill:rgb(109,104,104);stroke-width:1px;stroke:black;"/>
            </g>
            <g transform="matrix(1,0,0,1,143.565,20.3431)">
                <path d="M730.942,1277.04L817.196,1322.6L888.345,1365.22" style="fill:none;stroke-width:1px;stroke:rgb(111,107,107);"/>
            </g>
            <g transform="matrix(1,0,0,1,143.565,20.3431)">
                <path d="M812.073,1325.75L793.652,1411.24" style="fill:none;stroke-width:1px;stroke:rgb(111,107,107);"/>
            </g>
            <g transform="matrix(1,0,0,1,-112.843,124.615)">
                <text x="988.886px" y="1378.36px" style="font-family:'ArialMT';font-size:41.667px;fill:black;">Ontology</text>
            </g>
        </g>
        <g transform="matrix(1,0,0,1,-41.8375,18.4205)">
            <g transform="matrix(1,0,0,1,89.8344,-2.30256)">
                <text x="1193.55px" y="1487.63px" style="font-family:'ArialMT';font-size:41.667px;fill:black;">Intelligent <tspan x="1381.19px 1408.98px " y="1487.63px 1487.63px ">Ag</tspan>ents</text>
            </g>
            <g transform="matrix(0.753221,0,0,0.753221,1214.54,315.585)">
                <path d="M274.572,1232.48C270.615,1232.12 266.629,1232.12 262.672,1232.48L260.884,1241.07C257.096,1241.59 253.383,1242.5 249.815,1243.78L243.568,1237.15C239.946,1238.65 236.494,1240.48 233.262,1242.59L236.412,1250.85C233.418,1253.03 230.701,1255.51 228.309,1258.25L219.277,1255.37C216.96,1258.32 214.967,1261.48 213.326,1264.79L220.571,1270.5C219.174,1273.76 218.179,1277.15 217.605,1280.61L208.207,1282.24C207.818,1285.86 207.818,1289.5 208.207,1293.12L217.605,1294.75C218.179,1298.21 219.174,1301.6 220.571,1304.86L213.326,1310.57C214.967,1313.88 216.96,1317.04 219.277,1319.99L228.309,1317.11C230.701,1319.85 233.418,1322.33 236.412,1324.51L233.262,1332.77C236.494,1334.88 239.946,1336.7 243.568,1338.2L249.815,1331.59C253.383,1332.86 257.096,1333.77 260.884,1334.3L262.672,1342.88C266.629,1343.24 270.615,1343.24 274.572,1342.88L276.361,1334.3C280.149,1333.77 283.861,1332.86 287.429,1331.59L293.676,1338.2C297.298,1336.7 300.75,1334.88 303.983,1332.77L300.833,1324.51C303.826,1322.33 306.544,1319.85 308.935,1317.11L317.968,1319.99C320.284,1317.04 322.277,1313.88 323.918,1310.57L316.674,1304.86C318.07,1301.6 319.065,1298.21 319.64,1294.75L329.037,1293.12C329.427,1289.5 329.427,1285.86 329.037,1282.24L319.64,1280.61C319.065,1277.15 318.07,1273.76 316.674,1270.5L323.918,1264.79C322.277,1261.48 320.284,1258.32 317.968,1255.37L308.935,1258.25C306.544,1255.51 303.826,1253.03 300.833,1250.85L303.983,1242.59C300.75,1240.48 297.298,1238.65 293.676,1237.15L287.429,1243.78C283.861,1242.5 280.149,1241.59 276.361,1241.07L274.572,1232.48ZM268.622,1276.59C275.323,1276.59 280.764,1281.56 280.764,1287.68C280.764,1293.8 275.323,1298.77 268.622,1298.77C261.921,1298.77 256.481,1293.8 256.481,1287.68C256.481,1281.56 261.921,1276.59 268.622,1276.59Z" style="fill:rgb(109,104,104);stroke-width:1.33px;stroke:rgb(111,107,107);"/>
            </g>
            <g transform="matrix(0.753221,0,0,0.753221,1271.12,380.155)">
                <path d="M274.572,1232.48C270.615,1232.12 266.629,1232.12 262.672,1232.48L260.884,1241.07C257.096,1241.59 253.383,1242.5 249.815,1243.78L243.568,1237.15C239.946,1238.65 236.494,1240.48 233.262,1242.59L236.412,1250.85C233.418,1253.03 230.701,1255.51 228.309,1258.25L219.277,1255.37C216.96,1258.32 214.967,1261.48 213.326,1264.79L220.571,1270.5C219.174,1273.76 218.179,1277.15 217.605,1280.61L208.207,1282.24C207.818,1285.86 207.818,1289.5 208.207,1293.12L217.605,1294.75C218.179,1298.21 219.174,1301.6 220.571,1304.86L213.326,1310.57C214.967,1313.88 216.96,1317.04 219.277,1319.99L228.309,1317.11C230.701,1319.85 233.418,1322.33 236.412,1324.51L233.262,1332.77C236.494,1334.88 239.946,1336.7 243.568,1338.2L249.815,1331.59C253.383,1332.86 257.096,1333.77 260.884,1334.3L262.672,1342.88C266.629,1343.24 270.615,1343.24 274.572,1342.88L276.361,1334.3C280.149,1333.77 283.861,1332.86 287.429,1331.59L293.676,1338.2C297.298,1336.7 300.75,1334.88 303.983,1332.77L300.833,1324.51C303.826,1322.33 306.544,1319.85 308.935,1317.11L317.968,1319.99C320.284,1317.04 322.277,1313.88 323.918,1310.57L316.674,1304.86C318.07,1301.6 319.065,1298.21 319.64,1294.75L329.037,1293.12C329.427,1289.5 329.427,1285.86 329.037,1282.24L319.64,1280.61C319.065,1277.15 318.07,1273.76 316.674,1270.5L323.918,1264.79C322.277,1261.48 320.284,1258.32 317.968,1255.37L308.935,1258.25C306.544,1255.51 303.826,1253.03 300.833,1250.85L303.983,1242.59C300.75,1240.48 297.298,1238.65 293.676,1237.15L287.429,1243.78C283.861,1242.5 280.149,1241.59 276.361,1241.07L274.572,1232.48ZM268.622,1276.59C275.323,1276.59 280.764,1281.56 280.764,1287.68C280.764,1293.8 275.323,1298.77 268.622,1298.77C261.921,1298.77 256.481,1293.8 256.481,1287.68C256.481,1281.56 261.921,1276.59 268.622,1276.59Z" style="fill:rgb(109,104,104);stroke-width:1.33px;stroke:rgb(111,107,107);"/>
            </g>
            <g transform="matrix(0.753221,0,0,0.753221,1198.44,430.936)">
                <path d="M274.572,1232.48C270.615,1232.12 266.629,1232.12 262.672,1232.48L260.884,1241.07C257.096,1241.59 253.383,1242.5 249.815,1243.78L243.568,1237.15C239.946,1238.65 236.494,1240.48 233.262,1242.59L236.412,1250.85C233.418,1253.03 230.701,1255.51 228.309,1258.25L219.277,1255.37C216.96,1258.32 214.967,1261.48 213.326,1264.79L220.571,1270.5C219.174,1273.76 218.179,1277.15 217.605,1280.61L208.207,1282.24C207.818,1285.86 207.818,1289.5 208.207,1293.12L217.605,1294.75C218.179,1298.21 219.174,1301.6 220.571,1304.86L213.326,1310.57C214.967,1313.88 216.96,1317.04 219.277,1319.99L228.309,1317.11C230.701,1319.85 233.418,1322.33 236.412,1324.51L233.262,1332.77C236.494,1334.88 239.946,1336.7 243.568,1338.2L249.815,1331.59C253.383,1332.86 257.096,1333.77 260.884,1334.3L262.672,1342.88C266.629,1343.24 270.615,1343.24 274.572,1342.88L276.361,1334.3C280.149,1333.77 283.861,1332.86 287.429,1331.59L293.676,1338.2C297.298,1336.7 300.75,1334.88 303.983,1332.77L300.833,1324.51C303.826,1322.33 306.544,1319.85 308.935,1317.11L317.968,1319.99C320.284,1317.04 322.277,1313.88 323.918,1310.57L316.674,1304.86C318.07,1301.6 319.065,1298.21 319.64,1294.75L329.037,1293.12C329.427,1289.5 329.427,1285.86 329.037,1282.24L319.64,1280.61C319.065,1277.15 318.07,1273.76 316.674,1270.5L323.918,1264.79C322.277,1261.48 320.284,1258.32 317.968,1255.37L308.935,1258.25C306.544,1255.51 303.826,1253.03 300.833,1250.85L303.983,1242.59C300.75,1240.48 297.298,1238.65 293.676,1237.15L287.429,1243.78C283.861,1242.5 280.149,1241.59 276.361,1241.07L274.572,1232.48ZM268.622,1276.59C275.323,1276.59 280.764,1281.56 280.764,1287.68C280.764,1293.8 275.323,1298.77 268.622,1298.77C261.921,1298.77 256.481,1293.8 256.481,1287.68C256.481,1281.56 261.921,1276.59 268.622,1276.59Z" style="fill:rgb(109,104,104);stroke-width:1.33px;stroke:rgb(111,107,107);"/>
            </g>
        </g>
        <g transform="matrix(0.395181,0.395181,-1.13929,1.13929,1261.58,-320.209)">
            <path d="M483.958,879.411L483.958,860.972L1047.98,860.972L1047.98,843.85L1123.92,870.191L1047.98,896.532L1047.98,879.411L483.958,879.411Z" style="fill:rgb(109,104,104);stroke-width:0.83px;stroke:rgb(111,107,107);"/>
        </g>
        <g transform="matrix(-0.395181,0.395181,-1.13929,-1.13929,3082.78,1641.17)">
            <path d="M483.958,879.411L483.958,860.972L1047.98,860.972L1047.98,843.85L1123.92,870.191L1047.98,896.532L1047.98,879.411L483.958,879.411Z" style="fill:rgb(109,104,104);stroke-width:0.83px;stroke:rgb(111,107,107);"/>
        </g>
        <g transform="matrix(0.395181,-0.395181,1.13929,1.13929,-665.945,1017.27)">
            <path d="M483.958,879.411L483.958,860.972L1047.98,860.972L1047.98,843.85L1123.92,870.191L1047.98,896.532L1047.98,879.411L483.958,879.411Z" style="fill:rgb(109,104,104);stroke-width:0.83px;stroke:rgb(111,107,107);"/>
        </g>
        <g transform="matrix(-0.395181,-0.395181,1.13929,-1.13929,1092.28,2998.7)">
            <path d="M483.958,879.411L483.958,860.972L1047.98,860.972L1047.98,843.85L1123.92,870.191L1047.98,896.532L1047.98,879.411L483.958,879.411Z" style="fill:rgb(109,104,104);stroke-width:0.83px;stroke:rgb(111,107,107);"/>
        </g>
        <g transform="matrix(1,0,0,1,222.98,534.015)">
            <g transform="matrix(1,0,0,1,-84.8263,208.934)">
                <g transform="matrix(1,0,0,1,9.21024,-189.858)">
                    <path d="M120.1,30.6C120.1,35 95,38.6 64.1,38.6C33.2,38.6 8.1,35 8.1,30.6C8.1,26.2 33.2,22.6 64.1,22.6C95,22.6 120.1,26.2 120.1,30.6" style="fill:rgb(84,82,78);fill-rule:nonzero;"/>
                </g>
                <g transform="matrix(1,0,0,1,9.21024,-189.858)">
                    <path d="M64.1,45.3C33.2,45.3 8.1,41.7 8.1,37.3L8.1,60.5C8.1,64.9 33.2,68.5 64.1,68.5C70.3,68.5 76.3,68.4 81.9,68.1L81.9,44.9C76.3,45.1 70.3,45.3 64.1,45.3" style="fill:rgb(84,82,78);fill-rule:nonzero;"/>
                </g>
                <g transform="matrix(1,0,0,1,9.21024,-189.858)">
                    <path d="M64.1,105C33.2,105 8.1,101.4 8.1,97L8.1,120.2C8.1,124.6 33.2,128.2 64.1,128.2C70.3,128.2 76.3,128.1 81.9,127.8L81.9,104.6C76.3,104.8 70.3,105 64.1,105" style="fill:rgb(84,82,78);fill-rule:nonzero;"/>
                </g>
                <g transform="matrix(1,0,0,1,9.21024,-189.858)">
                    <path d="M64.1,75.1C33.2,75.1 8.1,71.5 8.1,67.1L8.1,90.3C8.1,94.7 33.2,98.3 64.1,98.3C70.3,98.3 76.3,98.2 81.9,97.9L81.9,74.7C76.3,75 70.3,75.1 64.1,75.1" style="fill:rgb(84,82,78);fill-rule:nonzero;"/>
                </g>
                <g transform="matrix(1,0,0,1,9.21024,-189.858)">
                    <path d="M120.1,60.5L120.1,37.3C120.1,40.8 104.1,43.8 81.9,44.8L81.9,68C104.1,67 120.1,64 120.1,60.5" style="fill:rgb(56,57,53);fill-rule:nonzero;"/>
                </g>
                <g transform="matrix(1,0,0,1,9.21024,-189.858)">
                    <path d="M120.1,120.2L120.1,97C120.1,100.5 104.1,103.5 81.9,104.5L81.9,127.7C104.1,126.7 120.1,123.7 120.1,120.2" style="fill:rgb(56,57,53);fill-rule:nonzero;"/>
                </g>
                <g transform="matrix(1,0,0,1,9.21024,-189.858)">
                    <path d="M120.1,90.3L120.1,67.2C120.1,70.7 104.1,73.7 81.9,74.7L81.9,97.9C104.1,96.8 120.1,93.9 120.1,90.3" style="fill:rgb(56,57,53);fill-rule:nonzero;"/>
                </g>
                <g transform="matrix(1,0,0,1,-256.39,-499.706)">
                    <text x="198.797px" y="483.787px" style="font-family:'ArialMT';font-size:41.667px;fill:black;">Local Context</text>
                </g>
            </g>
        </g>
        <g transform="matrix(1,0,0,1,222.98,534.015)">
            <g transform="matrix(1,0,0,1,1828.81,209.026)">
                <g transform="matrix(1,0,0,1,9.21024,-189.858)">
                    <path d="M120.1,30.6C120.1,35 95,38.6 64.1,38.6C33.2,38.6 8.1,35 8.1,30.6C8.1,26.2 33.2,22.6 64.1,22.6C95,22.6 120.1,26.2 120.1,30.6" style="fill:rgb(84,82,78);fill-rule:nonzero;"/>
                </g>
                <g transform="matrix(1,0,0,1,9.21024,-189.858)">
                    <path d="M64.1,45.3C33.2,45.3 8.1,41.7 8.1,37.3L8.1,60.5C8.1,64.9 33.2,68.5 64.1,68.5C70.3,68.5 76.3,68.4 81.9,68.1L81.9,44.9C76.3,45.1 70.3,45.3 64.1,45.3" style="fill:rgb(84,82,78);fill-rule:nonzero;"/>
                </g>
                <g transform="matrix(1,0,0,1,9.21024,-189.858)">
                    <path d="M64.1,105C33.2,105 8.1,101.4 8.1,97L8.1,120.2C8.1,124.6 33.2,128.2 64.1,128.2C70.3,128.2 76.3,128.1 81.9,127.8L81.9,104.6C76.3,104.8 70.3,105 64.1,105" style="fill:rgb(84,82,78);fill-rule:nonzero;"/>
                </g>
                <g transform="matrix(1,0,0,1,9.21024,-189.858)">
                    <path d="M64.1,75.1C33.2,75.1 8.1,71.5 8.1,67.1L8.1,90.3C8.1,94.7 33.2,98.3 64.1,98.3C70.3,98.3 76.3,98.2 81.9,97.9L81.9,74.7C76.3,75 70.3,75.1 64.1,75.1" style="fill:rgb(84,82,78);fill-rule:nonzero;"/>
                </g>
                <g transform="matrix(1,0,0,1,9.21024,-189.858)">
                    <path d="M120.1,60.5L120.1,37.3C120.1,40.8 104.1,43.8 81.9,44.8L81.9,68C104.1,67 120.1,64 120.1,60.5" style="fill:rgb(56,57,53);fill-rule:nonzero;"/>
                </g>
                <g transform="matrix(1,0,0,1,9.21024,-189.858)">
                    <path d="M120.1,120.2L120.1,97C120.1,100.5 104.1,103.5 81.9,104.5L81.9,127.7C104.1,126.7 120.1,123.7 120.1,120.2" style="fill:rgb(56,57,53);fill-rule:nonzero;"/>
                </g>
                <g transform="matrix(1,0,0,1,9.21024,-189.858)">
                    <path d="M120.1,90.3L120.1,67.2C120.1,70.7 104.1,73.7 81.9,74.7L81.9,97.9C104.1,96.8 120.1,93.9 120.1,90.3" style="fill:rgb(56,57,53);fill-rule:nonzero;"/>
                </g>
                <g transform="matrix(1,0,0,1,-256.39,-499.706)">
                    <text x="198.797px" y="483.787px" style="font-family:'ArialMT';font-size:41.667px;fill:black;">Local Context</text>
                </g>
            </g>
        </g>
        <g transform="matrix(1,0,0,1,222.98,534.015)">
            <g transform="matrix(1,0,0,1,-62.3879,1305.07)">
                <g transform="matrix(1,0,0,1,9.21024,-189.858)">
                    <path d="M120.1,30.6C120.1,35 95,38.6 64.1,38.6C33.2,38.6 8.1,35 8.1,30.6C8.1,26.2 33.2,22.6 64.1,22.6C95,22.6 120.1,26.2 120.1,30.6" style="fill:rgb(84,82,78);fill-rule:nonzero;"/>
                </g>
                <g transform="matrix(1,0,0,1,9.21024,-189.858)">
                    <path d="M64.1,45.3C33.2,45.3 8.1,41.7 8.1,37.3L8.1,60.5C8.1,64.9 33.2,68.5 64.1,68.5C70.3,68.5 76.3,68.4 81.9,68.1L81.9,44.9C76.3,45.1 70.3,45.3 64.1,45.3" style="fill:rgb(84,82,78);fill-rule:nonzero;"/>
                </g>
                <g transform="matrix(1,0,0,1,9.21024,-189.858)">
                    <path d="M64.1,105C33.2,105 8.1,101.4 8.1,97L8.1,120.2C8.1,124.6 33.2,128.2 64.1,128.2C70.3,128.2 76.3,128.1 81.9,127.8L81.9,104.6C76.3,104.8 70.3,105 64.1,105" style="fill:rgb(84,82,78);fill-rule:nonzero;"/>
                </g>
                <g transform="matrix(1,0,0,1,9.21024,-189.858)">
                    <path d="M64.1,75.1C33.2,75.1 8.1,71.5 8.1,67.1L8.1,90.3C8.1,94.7 33.2,98.3 64.1,98.3C70.3,98.3 76.3,98.2 81.9,97.9L81.9,74.7C76.3,75 70.3,75.1 64.1,75.1" style="fill:rgb(84,82,78);fill-rule:nonzero;"/>
                </g>
                <g transform="matrix(1,0,0,1,9.21024,-189.858)">
                    <path d="M120.1,60.5L120.1,37.3C120.1,40.8 104.1,43.8 81.9,44.8L81.9,68C104.1,67 120.1,64 120.1,60.5" style="fill:rgb(56,57,53);fill-rule:nonzero;"/>
                </g>
                <g transform="matrix(1,0,0,1,9.21024,-189.858)">
                    <path d="M120.1,120.2L120.1,97C120.1,100.5 104.1,103.5 81.9,104.5L81.9,127.7C104.1,126.7 120.1,123.7 120.1,120.2" style="fill:rgb(56,57,53);fill-rule:nonzero;"/>
                </g>
                <g transform="matrix(1,0,0,1,9.21024,-189.858)">
                    <path d="M120.1,90.3L120.1,67.2C120.1,70.7 104.1,73.7 81.9,74.7L81.9,97.9C104.1,96.8 120.1,93.9 120.1,90.3" style="fill:rgb(56,57,53);fill-rule:nonzero;"/>
                </g>
                <g transform="matrix(1,0,0,1,-256.39,-499.706)">
                    <text x="198.797px" y="483.787px" style="font-family:'ArialMT';font-size:41.667px;fill:black;">Local Context</text>
                </g>
            </g>
        </g>
        <g transform="matrix(1,0,0,1,222.98,534.015)">
            <g transform="matrix(1,0,0,1,1902.76,1358.55)">
                <g transform="matrix(1,0,0,1,9.21024,-189.858)">
                    <path d="M120.1,30.6C120.1,35 95,38.6 64.1,38.6C33.2,38.6 8.1,35 8.1,30.6C8.1,26.2 33.2,22.6 64.1,22.6C95,22.6 120.1,26.2 120.1,30.6" style="fill:rgb(84,82,78);fill-rule:nonzero;"/>
                </g>
                <g transform="matrix(1,0,0,1,9.21024,-189.858)">
                    <path d="M64.1,45.3C33.2,45.3 8.1,41.7 8.1,37.3L8.1,60.5C8.1,64.9 33.2,68.5 64.1,68.5C70.3,68.5 76.3,68.4 81.9,68.1L81.9,44.9C76.3,45.1 70.3,45.3 64.1,45.3" style="fill:rgb(84,82,78);fill-rule:nonzero;"/>
                </g>
                <g transform="matrix(1,0,0,1,9.21024,-189.858)">
                    <path d="M64.1,105C33.2,105 8.1,101.4 8.1,97L8.1,120.2C8.1,124.6 33.2,128.2 64.1,128.2C70.3,128.2 76.3,128.1 81.9,127.8L81.9,104.6C76.3,104.8 70.3,105 64.1,105" style="fill:rgb(84,82,78);fill-rule:nonzero;"/>
                </g>
                <g transform="matrix(1,0,0,1,9.21024,-189.858)">
                    <path d="M64.1,75.1C33.2,75.1 8.1,71.5 8.1,67.1L8.1,90.3C8.1,94.7 33.2,98.3 64.1,98.3C70.3,98.3 76.3,98.2 81.9,97.9L81.9,74.7C76.3,75 70.3,75.1 64.1,75.1" style="fill:rgb(84,82,78);fill-rule:nonzero;"/>
                </g>
                <g transform="matrix(1,0,0,1,9.21024,-189.858)">
                    <path d="M120.1,60.5L120.1,37.3C120.1,40.8 104.1,43.8 81.9,44.8L81.9,68C104.1,67 120.1,64 120.1,60.5" style="fill:rgb(56,57,53);fill-rule:nonzero;"/>
                </g>
                <g transform="matrix(1,0,0,1,9.21024,-189.858)">
                    <path d="M120.1,120.2L120.1,97C120.1,100.5 104.1,103.5 81.9,104.5L81.9,127.7C104.1,126.7 120.1,123.7 120.1,120.2" style="fill:rgb(56,57,53);fill-rule:nonzero;"/>
                </g>
                <g transform="matrix(1,0,0,1,9.21024,-189.858)">
                    <path d="M120.1,90.3L120.1,67.2C120.1,70.7 104.1,73.7 81.9,74.7L81.9,97.9C104.1,96.8 120.1,93.9 120.1,90.3" style="fill:rgb(56,57,53);fill-rule:nonzero;"/>
                </g>
                <g transform="matrix(1,0,0,1,-256.39,-499.706)">
                    <text x="198.797px" y="483.787px" style="font-family:'ArialMT';font-size:41.667px;fill:black;">Local Context</text>
                </g>
            </g>
        </g>
        <g transform="matrix(1,0,0,1,566.838,552.033)">
            <g transform="matrix(0.378807,0.378807,-0.290353,0.290353,622.52,54.4365)">
                <path d="M1891.44,1148.46L1891.44,1039.21L2360,1039.21L2360,937.76L2479.63,1093.83L2360,1249.91L2360,1148.46L1891.44,1148.46Z" style="fill:none;stroke-width:2.1px;stroke-dasharray:2.1,2.1;stroke:rgb(111,107,107);"/>
            </g>
        </g>
        <g transform="matrix(1,0,0,1,566.838,552.033)">
            <g>
                <path id="path2601" d="M201.294,277.816L201.294,361.155C201.294,364.458 198.635,367.117 195.331,367.117L124.409,367.117C121.105,367.117 118.446,364.458 118.446,361.155L118.446,256.968C118.446,253.664 121.105,251.005 124.409,251.005L175.919,251.005" style="fill:rgb(238,238,238);fill-rule:nonzero;stroke-width:3.51px;stroke-linecap:butt;stroke-linejoin:miter;stroke:rgb(51,51,51);"/>
                <path id="rect2583" d="M200.666,278.444L181.254,278.444C177.951,278.444 175.291,275.784 175.291,272.481L175.291,251.633" style="fill:none;stroke-width:3.51px;stroke-linecap:butt;stroke-linejoin:miter;stroke:rgb(51,51,51);"/>
                <rect id="rect2587" x="130.057" y="298.914" width="59.625" height="7.532" style="fill:rgb(102,102,102);stroke-width:3.51px;stroke-linecap:butt;stroke-linejoin:miter;stroke:rgb(136,136,136);"/>
                <rect id="rect2589" x="130.057" y="320.463" width="59.625" height="7.532" style="fill:rgb(102,102,102);stroke-width:3.51px;stroke-linecap:butt;stroke-linejoin:miter;stroke:rgb(136,136,136);"/>
                <rect id="rect2591" x="129.43" y="342.012" width="59.625" height="7.532" style="fill:rgb(102,102,102);stroke-width:3.51px;stroke-linecap:butt;stroke-linejoin:miter;stroke:rgb(136,136,136);"/>
                <rect id="rect2593" x="129.647" y="276.955" width="31.575" height="8.353" style="fill:rgb(102,102,102);stroke-width:2.69px;stroke-linecap:butt;stroke-linejoin:miter;stroke:rgb(136,136,136);"/>
                <path id="path2603" d="M174.479,250.38L201.592,279.089" style="fill:none;stroke-width:3.56px;stroke-linecap:butt;stroke-linejoin:miter;stroke:rgb(51,51,51);"/>
                <g id="path26011" transform="matrix(1,0,0,1,-15.2314,21.126)">
                    <path d="M201.294,277.816L201.294,361.155C201.294,364.458 198.635,367.117 195.331,367.117L124.409,367.117C121.105,367.117 118.446,364.458 118.446,361.155L118.446,256.968C118.446,253.664 121.105,251.005 124.409,251.005L175.919,251.005" style="fill:rgb(238,238,238);fill-rule:nonzero;stroke-width:3.51px;stroke-linecap:butt;stroke-linejoin:miter;stroke:rgb(51,51,51);"/>
                </g>
                <g id="rect25831" transform="matrix(1,0,0,1,-15.2314,21.126)">
                    <path d="M200.666,278.444L181.254,278.444C177.951,278.444 175.291,275.784 175.291,272.481L175.291,251.633" style="fill:none;stroke-width:3.51px;stroke-linecap:butt;stroke-linejoin:miter;stroke:rgb(51,51,51);"/>
                </g>
                <g id="rect25871" transform="matrix(1,0,0,1,-15.2314,21.126)">
                    <rect x="130.057" y="298.914" width="59.625" height="7.532" style="fill:rgb(102,102,102);stroke-width:3.51px;stroke-linecap:butt;stroke-linejoin:miter;stroke:rgb(136,136,136);"/>
                </g>
                <g id="rect25891" transform="matrix(1,0,0,1,-15.2314,21.126)">
                    <rect x="130.057" y="320.463" width="59.625" height="7.532" style="fill:rgb(102,102,102);stroke-width:3.51px;stroke-linecap:butt;stroke-linejoin:miter;stroke:rgb(136,136,136);"/>
                </g>
                <g id="rect25911" transform="matrix(1,0,0,1,-15.2314,21.126)">
                    <rect x="129.43" y="342.012" width="59.625" height="7.532" style="fill:rgb(102,102,102);stroke-width:3.51px;stroke-linecap:butt;stroke-linejoin:miter;stroke:rgb(136,136,136);"/>
                </g>
                <g id="rect25931" transform="matrix(1,0,0,1,-15.2314,21.126)">
                    <rect x="129.647" y="276.955" width="31.575" height="8.353" style="fill:rgb(102,102,102);stroke-width:2.69px;stroke-linecap:butt;stroke-linejoin:miter;stroke:rgb(136,136,136);"/>
                </g>
                <g id="path26031" transform="matrix(1,0,0,1,-15.2314,21.126)">
                    <path d="M174.479,250.38L201.592,279.089" style="fill:none;stroke-width:3.56px;stroke-linecap:butt;stroke-linejoin:miter;stroke:rgb(51,51,51);"/>
                </g>
                <g id="path26012" transform="matrix(1,0,0,1,-38.637,50.806)">
                    <path d="M201.294,277.816L201.294,361.155C201.294,364.458 198.635,367.117 195.331,367.117L124.409,367.117C121.105,367.117 118.446,364.458 118.446,361.155L118.446,256.968C118.446,253.664 121.105,251.005 124.409,251.005L175.919,251.005" style="fill:rgb(238,238,238);fill-rule:nonzero;stroke-width:3.51px;stroke-linecap:butt;stroke-linejoin:miter;stroke:rgb(51,51,51);"/>
                </g>
                <g id="rect25832" transform="matrix(1,0,0,1,-38.637,50.806)">
                    <path d="M200.666,278.444L181.254,278.444C177.951,278.444 175.291,275.784 175.291,272.481L175.291,251.633" style="fill:none;stroke-width:3.51px;stroke-linecap:butt;stroke-linejoin:miter;stroke:rgb(51,51,51);"/>
                </g>
                <g id="rect25872" transform="matrix(1,0,0,1,-38.637,50.806)">
                    <rect x="130.057" y="298.914" width="59.625" height="7.532" style="fill:rgb(102,102,102);stroke-width:3.51px;stroke-linecap:butt;stroke-linejoin:miter;stroke:rgb(136,136,136);"/>
                </g>
                <g id="rect25892" transform="matrix(1,0,0,1,-38.637,50.806)">
                    <rect x="130.057" y="320.463" width="59.625" height="7.532" style="fill:rgb(102,102,102);stroke-width:3.51px;stroke-linecap:butt;stroke-linejoin:miter;stroke:rgb(136,136,136);"/>
                </g>
                <g id="rect25912" transform="matrix(1,0,0,1,-38.637,50.806)">
                    <rect x="129.43" y="342.012" width="59.625" height="7.532" style="fill:rgb(102,102,102);stroke-width:3.51px;stroke-linecap:butt;stroke-linejoin:miter;stroke:rgb(136,136,136);"/>
                </g>
                <g id="rect25932" transform="matrix(1,0,0,1,-38.637,50.806)">
                    <rect x="129.647" y="276.955" width="31.575" height="8.353" style="fill:rgb(102,102,102);stroke-width:2.69px;stroke-linecap:butt;stroke-linejoin:miter;stroke:rgb(136,136,136);"/>
                </g>
                <g id="path26032" transform="matrix(1,0,0,1,-38.637,50.806)">
                    <path d="M174.479,250.38L201.592,279.089" style="fill:none;stroke-width:3.56px;stroke-linecap:butt;stroke-linejoin:miter;stroke:rgb(51,51,51);"/>
                </g>
            </g>
        </g>
        <g transform="matrix(1,0,0,1,566.838,552.033)">
            <g transform="matrix(1,0,0,1,931.478,-5.49161)">
                <path id="path26013" d="M201.294,277.816L201.294,361.155C201.294,364.458 198.635,367.117 195.331,367.117L124.409,367.117C121.105,367.117 118.446,364.458 118.446,361.155L118.446,256.968C118.446,253.664 121.105,251.005 124.409,251.005L175.919,251.005" style="fill:rgb(238,238,238);fill-rule:nonzero;stroke-width:3.51px;stroke-linecap:butt;stroke-linejoin:miter;stroke:rgb(51,51,51);"/>
                <path id="rect25833" d="M200.666,278.444L181.254,278.444C177.951,278.444 175.291,275.784 175.291,272.481L175.291,251.633" style="fill:none;stroke-width:3.51px;stroke-linecap:butt;stroke-linejoin:miter;stroke:rgb(51,51,51);"/>
                <rect id="rect25873" x="130.057" y="298.914" width="59.625" height="7.532" style="fill:rgb(102,102,102);stroke-width:3.51px;stroke-linecap:butt;stroke-linejoin:miter;stroke:rgb(136,136,136);"/>
                <rect id="rect25893" x="130.057" y="320.463" width="59.625" height="7.532" style="fill:rgb(102,102,102);stroke-width:3.51px;stroke-linecap:butt;stroke-linejoin:miter;stroke:rgb(136,136,136);"/>
                <rect id="rect25913" x="129.43" y="342.012" width="59.625" height="7.532" style="fill:rgb(102,102,102);stroke-width:3.51px;stroke-linecap:butt;stroke-linejoin:miter;stroke:rgb(136,136,136);"/>
                <rect id="rect25933" x="129.647" y="276.955" width="31.575" height="8.353" style="fill:rgb(102,102,102);stroke-width:2.69px;stroke-linecap:butt;stroke-linejoin:miter;stroke:rgb(136,136,136);"/>
                <path id="path26033" d="M174.479,250.38L201.592,279.089" style="fill:none;stroke-width:3.56px;stroke-linecap:butt;stroke-linejoin:miter;stroke:rgb(51,51,51);"/>
                <g id="path26014" transform="matrix(1,0,0,1,-15.2314,21.126)">
                    <path d="M201.294,277.816L201.294,361.155C201.294,364.458 198.635,367.117 195.331,367.117L124.409,367.117C121.105,367.117 118.446,364.458 118.446,361.155L118.446,256.968C118.446,253.664 121.105,251.005 124.409,251.005L175.919,251.005" style="fill:rgb(238,238,238);fill-rule:nonzero;stroke-width:3.51px;stroke-linecap:butt;stroke-linejoin:miter;stroke:rgb(51,51,51);"/>
                </g>
                <g id="rect25834" transform="matrix(1,0,0,1,-15.2314,21.126)">
                    <path d="M200.666,278.444L181.254,278.444C177.951,278.444 175.291,275.784 175.291,272.481L175.291,251.633" style="fill:none;stroke-width:3.51px;stroke-linecap:butt;stroke-linejoin:miter;stroke:rgb(51,51,51);"/>
                </g>
                <g id="rect25874" transform="matrix(1,0,0,1,-15.2314,21.126)">
                    <rect x="130.057" y="298.914" width="59.625" height="7.532" style="fill:rgb(102,102,102);stroke-width:3.51px;stroke-linecap:butt;stroke-linejoin:miter;stroke:rgb(136,136,136);"/>
                </g>
                <g id="rect25894" transform="matrix(1,0,0,1,-15.2314,21.126)">
                    <rect x="130.057" y="320.463" width="59.625" height="7.532" style="fill:rgb(102,102,102);stroke-width:3.51px;stroke-linecap:butt;stroke-linejoin:miter;stroke:rgb(136,136,136);"/>
                </g>
                <g id="rect25914" transform="matrix(1,0,0,1,-15.2314,21.126)">
                    <rect x="129.43" y="342.012" width="59.625" height="7.532" style="fill:rgb(102,102,102);stroke-width:3.51px;stroke-linecap:butt;stroke-linejoin:miter;stroke:rgb(136,136,136);"/>
                </g>
                <g id="rect25934" transform="matrix(1,0,0,1,-15.2314,21.126)">
                    <rect x="129.647" y="276.955" width="31.575" height="8.353" style="fill:rgb(102,102,102);stroke-width:2.69px;stroke-linecap:butt;stroke-linejoin:miter;stroke:rgb(136,136,136);"/>
                </g>
                <g id="path26034" transform="matrix(1,0,0,1,-15.2314,21.126)">
                    <path d="M174.479,250.38L201.592,279.089" style="fill:none;stroke-width:3.56px;stroke-linecap:butt;stroke-linejoin:miter;stroke:rgb(51,51,51);"/>
                </g>
                <g id="path26015" transform="matrix(1,0,0,1,-38.637,50.806)">
                    <path d="M201.294,277.816L201.294,361.155C201.294,364.458 198.635,367.117 195.331,367.117L124.409,367.117C121.105,367.117 118.446,364.458 118.446,361.155L118.446,256.968C118.446,253.664 121.105,251.005 124.409,251.005L175.919,251.005" style="fill:rgb(238,238,238);fill-rule:nonzero;stroke-width:3.51px;stroke-linecap:butt;stroke-linejoin:miter;stroke:rgb(51,51,51);"/>
                </g>
                <g id="rect25835" transform="matrix(1,0,0,1,-38.637,50.806)">
                    <path d="M200.666,278.444L181.254,278.444C177.951,278.444 175.291,275.784 175.291,272.481L175.291,251.633" style="fill:none;stroke-width:3.51px;stroke-linecap:butt;stroke-linejoin:miter;stroke:rgb(51,51,51);"/>
                </g>
                <g id="rect25875" transform="matrix(1,0,0,1,-38.637,50.806)">
                    <rect x="130.057" y="298.914" width="59.625" height="7.532" style="fill:rgb(102,102,102);stroke-width:3.51px;stroke-linecap:butt;stroke-linejoin:miter;stroke:rgb(136,136,136);"/>
                </g>
                <g id="rect25895" transform="matrix(1,0,0,1,-38.637,50.806)">
                    <rect x="130.057" y="320.463" width="59.625" height="7.532" style="fill:rgb(102,102,102);stroke-width:3.51px;stroke-linecap:butt;stroke-linejoin:miter;stroke:rgb(136,136,136);"/>
                </g>
                <g id="rect25915" transform="matrix(1,0,0,1,-38.637,50.806)">
                    <rect x="129.43" y="342.012" width="59.625" height="7.532" style="fill:rgb(102,102,102);stroke-width:3.51px;stroke-linecap:butt;stroke-linejoin:miter;stroke:rgb(136,136,136);"/>
                </g>
                <g id="rect25935" transform="matrix(1,0,0,1,-38.637,50.806)">
                    <rect x="129.647" y="276.955" width="31.575" height="8.353" style="fill:rgb(102,102,102);stroke-width:2.69px;stroke-linecap:butt;stroke-linejoin:miter;stroke:rgb(136,136,136);"/>
                </g>
                <g id="path26035" transform="matrix(1,0,0,1,-38.637,50.806)">
                    <path d="M174.479,250.38L201.592,279.089" style="fill:none;stroke-width:3.56px;stroke-linecap:butt;stroke-linejoin:miter;stroke:rgb(51,51,51);"/>
                </g>
            </g>
        </g>
        <g transform="matrix(1,0,0,1,566.838,552.033)">
            <g transform="matrix(1,0,0,1,-166.567,701.867)">
                <path id="path26016" d="M201.294,277.816L201.294,361.155C201.294,364.458 198.635,367.117 195.331,367.117L124.409,367.117C121.105,367.117 118.446,364.458 118.446,361.155L118.446,256.968C118.446,253.664 121.105,251.005 124.409,251.005L175.919,251.005" style="fill:rgb(238,238,238);fill-rule:nonzero;stroke-width:3.51px;stroke-linecap:butt;stroke-linejoin:miter;stroke:rgb(51,51,51);"/>
                <path id="rect25836" d="M200.666,278.444L181.254,278.444C177.951,278.444 175.291,275.784 175.291,272.481L175.291,251.633" style="fill:none;stroke-width:3.51px;stroke-linecap:butt;stroke-linejoin:miter;stroke:rgb(51,51,51);"/>
                <rect id="rect25876" x="130.057" y="298.914" width="59.625" height="7.532" style="fill:rgb(102,102,102);stroke-width:3.51px;stroke-linecap:butt;stroke-linejoin:miter;stroke:rgb(136,136,136);"/>
                <rect id="rect25896" x="130.057" y="320.463" width="59.625" height="7.532" style="fill:rgb(102,102,102);stroke-width:3.51px;stroke-linecap:butt;stroke-linejoin:miter;stroke:rgb(136,136,136);"/>
                <rect id="rect25916" x="129.43" y="342.012" width="59.625" height="7.532" style="fill:rgb(102,102,102);stroke-width:3.51px;stroke-linecap:butt;stroke-linejoin:miter;stroke:rgb(136,136,136);"/>
                <rect id="rect25936" x="129.647" y="276.955" width="31.575" height="8.353" style="fill:rgb(102,102,102);stroke-width:2.69px;stroke-linecap:butt;stroke-linejoin:miter;stroke:rgb(136,136,136);"/>
                <path id="path26036" d="M174.479,250.38L201.592,279.089" style="fill:none;stroke-width:3.56px;stroke-linecap:butt;stroke-linejoin:miter;stroke:rgb(51,51,51);"/>
                <g id="path26017" transform="matrix(1,0,0,1,-15.2314,21.126)">
                    <path d="M201.294,277.816L201.294,361.155C201.294,364.458 198.635,367.117 195.331,367.117L124.409,367.117C121.105,367.117 118.446,364.458 118.446,361.155L118.446,256.968C118.446,253.664 121.105,251.005 124.409,251.005L175.919,251.005" style="fill:rgb(238,238,238);fill-rule:nonzero;stroke-width:3.51px;stroke-linecap:butt;stroke-linejoin:miter;stroke:rgb(51,51,51);"/>
                </g>
                <g id="rect25837" transform="matrix(1,0,0,1,-15.2314,21.126)">
                    <path d="M200.666,278.444L181.254,278.444C177.951,278.444 175.291,275.784 175.291,272.481L175.291,251.633" style="fill:none;stroke-width:3.51px;stroke-linecap:butt;stroke-linejoin:miter;stroke:rgb(51,51,51);"/>
                </g>
                <g id="rect25877" transform="matrix(1,0,0,1,-15.2314,21.126)">
                    <rect x="130.057" y="298.914" width="59.625" height="7.532" style="fill:rgb(102,102,102);stroke-width:3.51px;stroke-linecap:butt;stroke-linejoin:miter;stroke:rgb(136,136,136);"/>
                </g>
                <g id="rect25897" transform="matrix(1,0,0,1,-15.2314,21.126)">
                    <rect x="130.057" y="320.463" width="59.625" height="7.532" style="fill:rgb(102,102,102);stroke-width:3.51px;stroke-linecap:butt;stroke-linejoin:miter;stroke:rgb(136,136,136);"/>
                </g>
                <g id="rect25917" transform="matrix(1,0,0,1,-15.2314,21.126)">
                    <rect x="129.43" y="342.012" width="59.625" height="7.532" style="fill:rgb(102,102,102);stroke-width:3.51px;stroke-linecap:butt;stroke-linejoin:miter;stroke:rgb(136,136,136);"/>
                </g>
                <g id="rect25937" transform="matrix(1,0,0,1,-15.2314,21.126)">
                    <rect x="129.647" y="276.955" width="31.575" height="8.353" style="fill:rgb(102,102,102);stroke-width:2.69px;stroke-linecap:butt;stroke-linejoin:miter;stroke:rgb(136,136,136);"/>
                </g>
                <g id="path26037" transform="matrix(1,0,0,1,-15.2314,21.126)">
                    <path d="M174.479,250.38L201.592,279.089" style="fill:none;stroke-width:3.56px;stroke-linecap:butt;stroke-linejoin:miter;stroke:rgb(51,51,51);"/>
                </g>
                <g id="path26018" transform="matrix(1,0,0,1,-38.637,50.806)">
                    <path d="M201.294,277.816L201.294,361.155C201.294,364.458 198.635,367.117 195.331,367.117L124.409,367.117C121.105,367.117 118.446,364.458 118.446,361.155L118.446,256.968C118.446,253.664 121.105,251.005 124.409,251.005L175.919,251.005" style="fill:rgb(238,238,238);fill-rule:nonzero;stroke-width:3.51px;stroke-linecap:butt;stroke-linejoin:miter;stroke:rgb(51,51,51);"/>
                </g>
                <g id="rect25838" transform="matrix(1,0,0,1,-38.637,50.806)">
                    <path d="M200.666,278.444L181.254,278.444C177.951,278.444 175.291,275.784 175.291,272.481L175.291,251.633" style="fill:none;stroke-width:3.51px;stroke-linecap:butt;stroke-linejoin:miter;stroke:rgb(51,51,51);"/>
                </g>
                <g id="rect25878" transform="matrix(1,0,0,1,-38.637,50.806)">
                    <rect x="130.057" y="298.914" width="59.625" height="7.532" style="fill:rgb(102,102,102);stroke-width:3.51px;stroke-linecap:butt;stroke-linejoin:miter;stroke:rgb(136,136,136);"/>
                </g>
                <g id="rect25898" transform="matrix(1,0,0,1,-38.637,50.806)">
                    <rect x="130.057" y="320.463" width="59.625" height="7.532" style="fill:rgb(102,102,102);stroke-width:3.51px;stroke-linecap:butt;stroke-linejoin:miter;stroke:rgb(136,136,136);"/>
                </g>
                <g id="rect25918" transform="matrix(1,0,0,1,-38.637,50.806)">
                    <rect x="129.43" y="342.012" width="59.625" height="7.532" style="fill:rgb(102,102,102);stroke-width:3.51px;stroke-linecap:butt;stroke-linejoin:miter;stroke:rgb(136,136,136);"/>
                </g>
                <g id="rect25938" transform="matrix(1,0,0,1,-38.637,50.806)">
                    <rect x="129.647" y="276.955" width="31.575" height="8.353" style="fill:rgb(102,102,102);stroke-width:2.69px;stroke-linecap:butt;stroke-linejoin:miter;stroke:rgb(136,136,136);"/>
                </g>
                <g id="path26038" transform="matrix(1,0,0,1,-38.637,50.806)">
                    <path d="M174.479,250.38L201.592,279.089" style="fill:none;stroke-width:3.56px;stroke-linecap:butt;stroke-linejoin:miter;stroke:rgb(51,51,51);"/>
                </g>
            </g>
        </g>
        <g transform="matrix(1,0,0,1,566.838,552.033)">
            <g transform="matrix(1,0,0,1,1313.46,718.318)">
                <path id="path26019" d="M201.294,277.816L201.294,361.155C201.294,364.458 198.635,367.117 195.331,367.117L124.409,367.117C121.105,367.117 118.446,364.458 118.446,361.155L118.446,256.968C118.446,253.664 121.105,251.005 124.409,251.005L175.919,251.005" style="fill:rgb(238,238,238);fill-rule:nonzero;stroke-width:3.51px;stroke-linecap:butt;stroke-linejoin:miter;stroke:rgb(51,51,51);"/>
                <path id="rect25839" d="M200.666,278.444L181.254,278.444C177.951,278.444 175.291,275.784 175.291,272.481L175.291,251.633" style="fill:none;stroke-width:3.51px;stroke-linecap:butt;stroke-linejoin:miter;stroke:rgb(51,51,51);"/>
                <rect id="rect25879" x="130.057" y="298.914" width="59.625" height="7.532" style="fill:rgb(102,102,102);stroke-width:3.51px;stroke-linecap:butt;stroke-linejoin:miter;stroke:rgb(136,136,136);"/>
                <rect id="rect25899" x="130.057" y="320.463" width="59.625" height="7.532" style="fill:rgb(102,102,102);stroke-width:3.51px;stroke-linecap:butt;stroke-linejoin:miter;stroke:rgb(136,136,136);"/>
                <rect id="rect25919" x="129.43" y="342.012" width="59.625" height="7.532" style="fill:rgb(102,102,102);stroke-width:3.51px;stroke-linecap:butt;stroke-linejoin:miter;stroke:rgb(136,136,136);"/>
                <rect id="rect25939" x="129.647" y="276.955" width="31.575" height="8.353" style="fill:rgb(102,102,102);stroke-width:2.69px;stroke-linecap:butt;stroke-linejoin:miter;stroke:rgb(136,136,136);"/>
                <path id="path26039" d="M174.479,250.38L201.592,279.089" style="fill:none;stroke-width:3.56px;stroke-linecap:butt;stroke-linejoin:miter;stroke:rgb(51,51,51);"/>
                <g id="path260110" transform="matrix(1,0,0,1,-15.2314,21.126)">
                    <path d="M201.294,277.816L201.294,361.155C201.294,364.458 198.635,367.117 195.331,367.117L124.409,367.117C121.105,367.117 118.446,364.458 118.446,361.155L118.446,256.968C118.446,253.664 121.105,251.005 124.409,251.005L175.919,251.005" style="fill:rgb(238,238,238);fill-rule:nonzero;stroke-width:3.51px;stroke-linecap:butt;stroke-linejoin:miter;stroke:rgb(51,51,51);"/>
                </g>
                <g id="rect258310" transform="matrix(1,0,0,1,-15.2314,21.126)">
                    <path d="M200.666,278.444L181.254,278.444C177.951,278.444 175.291,275.784 175.291,272.481L175.291,251.633" style="fill:none;stroke-width:3.51px;stroke-linecap:butt;stroke-linejoin:miter;stroke:rgb(51,51,51);"/>
                </g>
                <g id="rect258710" transform="matrix(1,0,0,1,-15.2314,21.126)">
                    <rect x="130.057" y="298.914" width="59.625" height="7.532" style="fill:rgb(102,102,102);stroke-width:3.51px;stroke-linecap:butt;stroke-linejoin:miter;stroke:rgb(136,136,136);"/>
                </g>
                <g id="rect258910" transform="matrix(1,0,0,1,-15.2314,21.126)">
                    <rect x="130.057" y="320.463" width="59.625" height="7.532" style="fill:rgb(102,102,102);stroke-width:3.51px;stroke-linecap:butt;stroke-linejoin:miter;stroke:rgb(136,136,136);"/>
                </g>
                <g id="rect259110" transform="matrix(1,0,0,1,-15.2314,21.126)">
                    <rect x="129.43" y="342.012" width="59.625" height="7.532" style="fill:rgb(102,102,102);stroke-width:3.51px;stroke-linecap:butt;stroke-linejoin:miter;stroke:rgb(136,136,136);"/>
                </g>
                <g id="rect259310" transform="matrix(1,0,0,1,-15.2314,21.126)">
                    <rect x="129.647" y="276.955" width="31.575" height="8.353" style="fill:rgb(102,102,102);stroke-width:2.69px;stroke-linecap:butt;stroke-linejoin:miter;stroke:rgb(136,136,136);"/>
                </g>
                <g id="path260310" transform="matrix(1,0,0,1,-15.2314,21.126)">
                    <path d="M174.479,250.38L201.592,279.089" style="fill:none;stroke-width:3.56px;stroke-linecap:butt;stroke-linejoin:miter;stroke:rgb(51,51,51);"/>
                </g>
                <g id="path260111" transform="matrix(1,0,0,1,-38.637,50.806)">
                    <path d="M201.294,277.816L201.294,361.155C201.294,364.458 198.635,367.117 195.331,367.117L124.409,367.117C121.105,367.117 118.446,364.458 118.446,361.155L118.446,256.968C118.446,253.664 121.105,251.005 124.409,251.005L175.919,251.005" style="fill:rgb(238,238,238);fill-rule:nonzero;stroke-width:3.51px;stroke-linecap:butt;stroke-linejoin:miter;stroke:rgb(51,51,51);"/>
                </g>
                <g id="rect258311" transform="matrix(1,0,0,1,-38.637,50.806)">
                    <path d="M200.666,278.444L181.254,278.444C177.951,278.444 175.291,275.784 175.291,272.481L175.291,251.633" style="fill:none;stroke-width:3.51px;stroke-linecap:butt;stroke-linejoin:miter;stroke:rgb(51,51,51);"/>
                </g>
                <g id="rect258711" transform="matrix(1,0,0,1,-38.637,50.806)">
                    <rect x="130.057" y="298.914" width="59.625" height="7.532" style="fill:rgb(102,102,102);stroke-width:3.51px;stroke-linecap:butt;stroke-linejoin:miter;stroke:rgb(136,136,136);"/>
                </g>
                <g id="rect258911" transform="matrix(1,0,0,1,-38.637,50.806)">
                    <rect x="130.057" y="320.463" width="59.625" height="7.532" style="fill:rgb(102,102,102);stroke-width:3.51px;stroke-linecap:butt;stroke-linejoin:miter;stroke:rgb(136,136,136);"/>
                </g>
                <g id="rect259111" transform="matrix(1,0,0,1,-38.637,50.806)">
                    <rect x="129.43" y="342.012" width="59.625" height="7.532" style="fill:rgb(102,102,102);stroke-width:3.51px;stroke-linecap:butt;stroke-linejoin:miter;stroke:rgb(136,136,136);"/>
                </g>
                <g id="rect259311" transform="matrix(1,0,0,1,-38.637,50.806)">
                    <rect x="129.647" y="276.955" width="31.575" height="8.353" style="fill:rgb(102,102,102);stroke-width:2.69px;stroke-linecap:butt;stroke-linejoin:miter;stroke:rgb(136,136,136);"/>
                </g>
                <g id="path260311" transform="matrix(1,0,0,1,-38.637,50.806)">
                    <path d="M174.479,250.38L201.592,279.089" style="fill:none;stroke-width:3.56px;stroke-linecap:butt;stroke-linejoin:miter;stroke:rgb(51,51,51);"/>
                </g>
            </g>
        </g>
        <g transform="matrix(1,0,0,1,566.838,552.033)">
            <g transform="matrix(1,0,0,1,-577.971,-535.535)">
                <text x="800.422px" y="862.95px" style="font-family:'ArialMT';font-size:41.667px;fill:black;">Shared</text>
                <text x="800.422px" y="905.979px" style="font-family:'ArialMT';font-size:41.667px;fill:black;">Parts</text>
            </g>
        </g>
        <g transform="matrix(1,0,0,1,566.838,552.033)">
            <g transform="matrix(1,0,0,1,60.5638,-532.461)">
                <text x="800.422px" y="862.95px" style="font-family:'ArialMT';font-size:41.667px;fill:black;">Shared</text>
                <text x="800.422px" y="905.979px" style="font-family:'ArialMT';font-size:41.667px;fill:black;">Parts</text>
            </g>
        </g>
        <g transform="matrix(1,0,0,1,566.838,552.033)">
            <g transform="matrix(1,0,0,1,-1037.47,181.517)">
                <text x="800.422px" y="862.95px" style="font-family:'ArialMT';font-size:41.667px;fill:black;">Shared</text>
                <text x="800.422px" y="905.979px" style="font-family:'ArialMT';font-size:41.667px;fill:black;">Parts</text>
            </g>
        </g>
        <g transform="matrix(1,0,0,1,566.838,552.033)">
            <g transform="matrix(1,0,0,1,443.67,206.857)">
                <text x="800.422px" y="862.95px" style="font-family:'ArialMT';font-size:41.667px;fill:black;">Shared</text>
                <text x="800.422px" y="905.979px" style="font-family:'ArialMT';font-size:41.667px;fill:black;">Parts</text>
            </g>
        </g>
        <g transform="matrix(1,0,0,1,566.838,552.033)">
            <g transform="matrix(0.380035,-0.380035,0.291295,0.291295,167.78,963.348)">
                <path d="M1891.44,1148.46L1891.44,1039.21L2360,1039.21L2360,937.76L2479.63,1093.83L2360,1249.91L2360,1148.46L1891.44,1148.46Z" style="fill:none;stroke-width:2.09px;stroke-dasharray:2.09,2.09;stroke:rgb(111,107,107);"/>
            </g>
        </g>
        <g transform="matrix(1,0,0,1,566.838,552.033)">
            <g transform="matrix(-0.379927,-0.379927,0.291212,-0.291212,445.418,1623.25)">
                <path d="M1891.44,1148.46L1891.44,1039.21L2360,1039.21L2360,937.76L2479.63,1093.83L2360,1249.91L2360,1148.46L1891.44,1148.46Z" style="fill:none;stroke-width:2.09px;stroke-dasharray:2.09,2.09;stroke:rgb(111,107,107);"/>
            </g>
        </g>
        <g transform="matrix(1,0,0,1,566.838,552.033)">
            <g transform="matrix(-0.380852,0.380852,-0.291921,-0.291921,1305.19,703.188)">
                <path d="M1891.44,1148.46L1891.44,1039.21L2360,1039.21L2360,937.76L2479.63,1093.83L2360,1249.91L2360,1148.46L1891.44,1148.46Z" style="fill:none;stroke-width:2.08px;stroke-dasharray:2.08,2.08;stroke:rgb(111,107,107);"/>
            </g>
        </g>
    </g>
</svg>
